<?xml version="1.0" encoding="UTF-8" standalone="no"?>
<!-- Generator: Adobe Illustrator 19.0.0, SVG Export Plug-In . SVG Version: 6.00 Build 0)  -->

<svg
   xmlns:dc="http://purl.org/dc/elements/1.1/"
   xmlns:cc="http://creativecommons.org/ns#"
   xmlns:rdf="http://www.w3.org/1999/02/22-rdf-syntax-ns#"
   xmlns:svg="http://www.w3.org/2000/svg"
   xmlns="http://www.w3.org/2000/svg"
   xmlns:sodipodi="http://sodipodi.sourceforge.net/DTD/sodipodi-0.dtd"
   xmlns:inkscape="http://www.inkscape.org/namespaces/inkscape"
   version="1.1"
   id="dark"
   inkscape:version="0.91 r13725"
   sodipodi:docname="logo.svg"
   x="0px"
   y="0px"
   viewBox="90.18 977.405 610.109 200"
   enable-background="new 90.18 977.405 610.109 200"
   xml:space="preserve"><metadata
     id="metadata95"><rdf:RDF><cc:Work
         rdf:about=""><dc:format>image/svg+xml</dc:format><dc:type
           rdf:resource="http://purl.org/dc/dcmitype/StillImage" /></cc:Work></rdf:RDF></metadata><defs
     id="defs93" /><sodipodi:namedview
     pagecolor="#ffffff"
     bordercolor="#666666"
     borderopacity="1"
     objecttolerance="10"
     gridtolerance="10"
     guidetolerance="10"
     inkscape:pageopacity="0"
     inkscape:pageshadow="2"
     inkscape:window-width="1920"
     inkscape:window-height="1017"
     id="namedview91"
     showgrid="false"
     inkscape:zoom="1.8881872"
     inkscape:cx="387.40413"
     inkscape:cy="148.4364"
     inkscape:window-x="3192"
     inkscape:window-y="-8"
     inkscape:window-maximized="1"
     inkscape:current-layer="dark" /><path
     d="m 117.073,1177.405 22.645,0 c 5.352,0 12.006,-3.759 14.771,-8.376 l 19.071,-31.726 c 2.255,-4.651 2.173,-11.427 -0.397,-15.712 l -11.26,-18.634 -44.83,74.448 z"
     id="path7"
     inkscape:connector-curvature="0"
     style="fill:#f6c25b" /><path
     d="m 141.413,1085.779 -50.349,84.173 c -1.944,4.148 0.079,7.453 5.069,7.453 l 20.94,0 44.829,-74.448 -20.488,-33.916 c 2.761,4.596 2.761,12.131 -10e-4,16.738"
     id="path9"
     inkscape:connector-curvature="0"
     style="fill:#0a985c" /><path
     d="m 96.134,977.405 c -5.38,0 -7.502,3.779 -4.747,8.366 l 81.776,135.821 c 2.57,4.285 2.646,11.061 0.397,15.705 l 19.876,-33.078 -76.349,-126.813 -20.953,0 z"
     id="path11"
     inkscape:connector-curvature="0"
     style="fill:#5586c5" /><path
     d="m 117.087,977.405 76.349,126.813 11.073,-18.432 c 2.768,-4.613 2.768,-12.148 0,-16.744 l -50.017,-83.271 c -2.769,-4.586 -9.423,-8.366 -14.774,-8.366 l -22.631,0 z"
     id="path13"
     inkscape:connector-curvature="0"
     style="fill:#d9423e" /><path
     d="m 288.271,1137.153 -32.047,0 0,-5.755 12.19,-12.257 c 3.602,-3.684 5.987,-6.298 7.163,-7.839 1.175,-1.541 2.034,-2.994 2.57,-4.35 0.54,-1.36 0.81,-2.812 0.81,-4.367 0,-2.132 -0.642,-3.814 -1.924,-5.044 -1.286,-1.226 -3.056,-1.842 -5.322,-1.842 -1.811,0 -3.561,0.335 -5.253,1.001 -1.694,0.669 -3.649,1.876 -5.871,3.622 l -4.108,-5.013 c 2.631,-2.218 5.184,-3.793 7.665,-4.719 2.478,-0.926 5.119,-1.391 7.922,-1.391 4.398,0 7.926,1.148 10.578,3.445 2.653,2.293 3.978,5.382 3.978,9.264 0,2.132 -0.386,4.159 -1.148,6.079 -0.765,1.917 -1.942,3.896 -3.527,5.932 -1.582,2.037 -4.22,4.791 -7.905,8.263 l -8.215,7.955 0,0.321 22.443,0 0,6.695 z"
     id="path21"
     inkscape:connector-curvature="0"
     style="fill:#4e4e4e" /><path
     d="m 326.076,1113.516 c 0,8.212 -1.319,14.315 -3.961,18.303 -2.642,3.988 -6.678,5.98 -12.112,5.98 -5.26,0 -9.248,-2.057 -11.965,-6.175 -2.717,-4.118 -4.074,-10.153 -4.074,-18.108 0,-8.345 1.319,-14.492 3.961,-18.449 2.642,-3.954 6.668,-5.932 12.078,-5.932 5.284,0 9.282,2.071 11.999,6.209 2.717,4.138 4.074,10.197 4.074,18.172 z m -24.415,0 c 0,6.445 0.663,11.048 1.989,13.805 1.326,2.761 3.445,4.142 6.353,4.142 2.911,0 5.041,-1.401 6.387,-4.207 1.347,-2.802 2.02,-7.381 2.02,-13.74 0,-6.339 -0.673,-10.925 -2.02,-13.761 -1.347,-2.833 -3.476,-4.251 -6.387,-4.251 -2.908,0 -5.027,1.391 -6.353,4.172 -1.326,2.782 -1.989,7.395 -1.989,13.84 z"
     id="path23"
     inkscape:connector-curvature="0"
     style="fill:#4e4e4e" /><path
     d="m 354.148,1137.153 -7.6,0 0,-30.526 c 0,-3.643 0.085,-6.53 0.26,-8.666 -0.496,0.519 -1.107,1.09 -1.828,1.715 -0.722,0.625 -3.141,2.607 -7.259,5.949 l -3.817,-4.818 13.906,-10.928 6.339,0 0,47.274 z"
     id="path25"
     inkscape:connector-curvature="0"
     style="fill:#4e4e4e" /><path
     d="m 385.679,1107.632 c 4.765,0 8.537,1.261 11.32,3.783 2.781,2.522 4.173,5.96 4.173,10.313 0,5.044 -1.579,8.984 -4.74,11.82 -3.157,2.837 -7.645,4.251 -13.468,4.251 -5.28,0 -9.432,-0.851 -12.45,-2.552 l 0,-6.889 c 1.746,0.99 3.752,1.756 6.014,2.296 2.266,0.54 4.368,0.81 6.306,0.81 3.428,0 6.038,-0.765 7.826,-2.296 1.791,-1.531 2.686,-3.773 2.686,-6.729 0,-5.645 -3.602,-8.471 -10.803,-8.471 -1.011,0 -2.262,0.103 -3.749,0.308 -1.49,0.205 -2.792,0.437 -3.913,0.697 l -3.397,-2.006 1.811,-23.087 24.58,0 0,6.756 -17.884,0 -1.069,11.707 c 0.755,-0.13 1.678,-0.28 2.765,-0.454 1.087,-0.172 2.42,-0.257 3.992,-0.257 z"
     id="path27"
     inkscape:connector-curvature="0"
     style="fill:#4e4e4e" /><path
     style="fill:#4e4e4e"
     inkscape:connector-curvature="0"
     id="path47"
     d="m 474.434,1037.446 c 0,8.922 -2.443,15.801 -7.314,20.62 -4.874,4.818 -11.729,7.241 -20.557,7.241 l -17.17,0 0,-53.449 18.367,0 c 8.513,0 15.088,2.197 19.719,6.585 4.635,4.376 6.955,10.719 6.955,19.003 z m -14.884,0.515 c 0,-4.897 -0.96,-8.529 -2.884,-10.898 -1.914,-2.358 -4.839,-3.543 -8.763,-3.543 l -4.173,0 0,29.935 3.199,0 c 4.35,0 7.553,-1.275 9.586,-3.814 2.017,-2.552 3.035,-6.441 3.035,-11.68 z" /><path
     style="fill:#4e4e4e"
     inkscape:connector-curvature="0"
     id="path51"
     d="m 498.501,1066.038 c -6.856,0 -12.17,-1.836 -15.957,-5.502 -3.783,-3.67 -5.68,-8.899 -5.68,-15.668 0,-6.991 1.75,-12.367 5.257,-16.102 3.51,-3.738 8.52,-5.611 15.023,-5.611 6.19,0 10.974,1.626 14.354,4.88 3.377,3.253 5.058,7.935 5.058,14.062 l 0,6.359 -25.355,0 c 0.092,2.313 0.936,4.125 2.515,5.44 1.589,1.322 3.745,1.972 6.479,1.972 2.492,0 4.785,-0.239 6.879,-0.708 2.085,-0.475 4.362,-1.285 6.798,-2.43 l 0,10.269 c -2.218,1.152 -4.518,1.941 -6.89,2.382 -2.374,0.438 -5.204,0.657 -8.481,0.657 z m -0.845,-33.158 c -1.667,0 -3.059,0.533 -4.186,1.592 -1.134,1.056 -1.784,2.72 -1.982,4.986 l 12.197,0 c -0.051,-1.996 -0.611,-3.588 -1.689,-4.788 -1.079,-1.199 -2.528,-1.79 -4.34,-1.79 z" /><path
     style="fill:#4e4e4e"
     inkscape:connector-curvature="0"
     id="path55"
     d="m 530.893,1065.306 -15.673,-41.424 14.805,0 6.965,24.495 c 0.02,0.126 0.072,0.328 0.15,0.625 0.069,0.291 0.143,0.639 0.212,1.036 0.078,0.406 0.143,0.834 0.198,1.288 0.065,0.451 0.096,0.868 0.096,1.254 l 0.246,0 c 0,-1.258 0.222,-2.638 0.656,-4.125 l 7.293,-24.573 14.765,0 -15.68,41.424 -14.033,0 z" /><path
     style="fill:#4e4e4e"
     inkscape:connector-curvature="0"
     id="path59"
     d="m 576.002,1065.306 -14.115,0 0,-53.449 31.353,0 0,11.591 -17.238,0 0,10.201 15.891,0 0,11.588 -15.891,0 0,20.069 z" /><path
     style="fill:#4e4e4e"
     inkscape:connector-curvature="0"
     id="path63"
     d="m 616.5,1066.038 c -6.849,0 -12.149,-1.836 -15.95,-5.502 -3.783,-3.67 -5.677,-8.899 -5.677,-15.668 0,-6.991 1.751,-12.367 5.257,-16.102 3.51,-3.738 8.513,-5.611 15.023,-5.611 6.19,0 10.975,1.626 14.351,4.88 3.376,3.253 5.054,7.935 5.054,14.062 l 0,6.359 -25.358,0 c 0.1,2.313 0.944,4.125 2.526,5.44 1.583,1.322 3.736,1.972 6.476,1.972 2.488,0 4.785,-0.239 6.883,-0.708 2.078,-0.475 4.35,-1.285 6.794,-2.43 l 0,10.269 c -2.215,1.152 -4.532,1.941 -6.89,2.382 -2.375,0.438 -5.201,0.657 -8.489,0.657 z m -0.84,-33.158 c -1.661,0 -3.062,0.533 -4.187,1.592 -1.128,1.056 -1.784,2.72 -1.971,4.986 l 12.187,0 c -0.054,-1.996 -0.615,-3.588 -1.685,-4.788 -1.084,-1.199 -2.527,-1.79 -4.344,-1.79 z" /><path
     style="fill:#4e4e4e"
     inkscape:connector-curvature="0"
     id="path67"
     d="m 669.876,1052.58 c 0,4.436 -1.497,7.791 -4.501,10.053 -3,2.266 -7.304,3.404 -12.915,3.404 -3.045,0 -5.701,-0.161 -7.946,-0.496 -2.252,-0.328 -4.542,-0.936 -6.889,-1.804 l 0,-11.444 c 2.204,0.977 4.614,1.783 7.242,2.412 2.618,0.629 4.962,0.943 7.016,0.943 3.079,0 4.611,-0.7 4.611,-2.109 0,-0.734 -0.431,-1.391 -1.292,-1.958 -0.851,-0.574 -3.352,-1.688 -7.488,-3.345 -3.776,-1.565 -6.408,-3.335 -7.908,-5.324 -1.507,-1.979 -2.252,-4.497 -2.252,-7.545 0,-3.848 1.469,-6.849 4.426,-8.991 2.946,-2.153 7.119,-3.222 12.515,-3.222 2.71,0 5.257,0.297 7.645,0.899 2.375,0.598 4.843,1.466 7.413,2.614 l -3.848,9.213 c -1.887,-0.848 -3.883,-1.582 -5.991,-2.177 -2.102,-0.598 -3.811,-0.888 -5.147,-0.888 -2.32,0 -3.475,0.567 -3.475,1.708 0,0.707 0.403,1.316 1.206,1.804 0.813,0.506 3.154,1.524 7.03,3.058 2.871,1.199 5.02,2.371 6.439,3.516 1.411,1.145 2.454,2.491 3.121,4.036 0.66,1.55 0.988,3.422 0.988,5.643 z" /><path
     style="fill:#4e4e4e"
     inkscape:connector-curvature="0"
     id="path71"
     d="m 693.436,1054.744 c 1.908,0 4.194,-0.479 6.852,-1.432 l 0,10.426 c -1.917,0.823 -3.732,1.408 -5.464,1.767 -1.726,0.359 -3.756,0.533 -6.08,0.533 -4.761,0 -8.202,-1.179 -10.294,-3.523 -2.116,-2.358 -3.168,-5.97 -3.168,-10.846 l 0,-17.066 -4.962,0 0,-5.819 6.305,-4.497 3.667,-8.697 9.293,0 0,8.293 10.092,0 0,10.72 -10.092,0 0,16.119 c 0,2.675 1.282,4.022 3.851,4.022 z" /><path
     style="fill:#4e4e4e"
     inkscape:connector-curvature="0"
     id="path77"
     d="m 273.274,1035.265 23.072,0 0,28.81 c -6.267,2.143 -13.157,3.219 -20.659,3.219 -8.24,0 -14.611,-2.389 -19.105,-7.17 -4.497,-4.774 -6.746,-11.588 -6.746,-20.435 0,-8.635 2.461,-15.344 7.385,-20.148 4.928,-4.801 11.825,-7.207 20.697,-7.207 3.367,0 6.539,0.321 9.528,0.953 2.977,0.633 5.585,1.439 7.81,2.409 l -4.573,11.332 c -3.848,-1.893 -8.086,-2.843 -12.686,-2.843 -4.218,0 -7.478,1.37 -9.782,4.115 -2.31,2.734 -3.461,6.653 -3.461,11.755 0,4.996 1.045,8.803 3.13,11.42 2.082,2.625 5.085,3.933 9.013,3.933 2.15,0 4.125,-0.201 5.929,-0.622 l 0,-8.372 -9.548,0 0,-11.151 -0.004,0 z" /><path
     style="fill:#4e4e4e"
     inkscape:connector-curvature="0"
     id="path81"
     d="m 348.134,1038.7 c 0,8.926 -2.461,15.798 -7.372,20.626 -4.912,4.825 -11.812,7.241 -20.714,7.241 l -17.297,0 0,-53.463 18.503,0 c 8.582,0 15.208,2.194 19.877,6.585 4.665,4.388 7.003,10.72 7.003,19.011 z m -14.991,0.516 c 0,-4.904 -0.974,-8.536 -2.911,-10.891 -1.938,-2.375 -4.877,-3.55 -8.828,-3.55 l -4.211,0 0,29.942 3.219,0 c 4.389,0 7.604,-1.271 9.655,-3.82 2.051,-2.544 3.076,-6.443 3.076,-11.681 z" /><path
     style="fill:#4e4e4e"
     inkscape:connector-curvature="0"
     id="path85"
     d="m 374.688,1035.265 23.073,0 0,28.81 c -6.268,2.143 -13.148,3.219 -20.66,3.219 -8.244,0 -14.611,-2.389 -19.108,-7.17 -4.49,-4.774 -6.747,-11.588 -6.747,-20.435 0,-8.635 2.465,-15.344 7.393,-20.148 4.924,-4.801 11.821,-7.207 20.7,-7.207 3.352,0 6.534,0.321 9.521,0.953 2.983,0.633 5.587,1.439 7.809,2.409 l -4.573,11.332 c -3.851,-1.893 -8.083,-2.843 -12.692,-2.843 -4.214,0 -7.471,1.37 -9.774,4.115 -2.304,2.734 -3.456,6.653 -3.456,11.755 0,4.996 1.039,8.803 3.123,11.42 2.082,2.625 5.089,3.933 9.016,3.933 2.143,0 4.118,-0.201 5.919,-0.622 l 0,-8.372 -9.546,0 0,-11.149 z" /><path
     fill="#168B58"
     d="M141.413,1085.779l-12.032,20.115l21.535,15.307l10.985-18.243l-20.488-33.916  C144.175,1073.637,144.175,1081.172,141.413,1085.779z"
     id="path87" /><path
     fill="#D7AB56"
     d="M161.902,1102.957l-10.985,18.243l22.646,16.096c2.252-4.651,2.169-11.422-0.4-15.705L161.902,1102.957z"
     id="path89" /><g
     transform="matrix(0.2842922,0,0,0.2842922,124.74433,1042.2969)"
     id="g4162"
     style="fill:#4e4e4e;fill-opacity:1"><path
       d="m 1190.3693,170.7359 0,113.56514 q 0,19.44773 -8.4034,34.09356 -8.2833,14.52577 -24.1296,22.44892 -15.7262,7.8031 -37.695,7.8031 -32.6529,0 -50.7801,-17.28687 -18.1272,-17.28687 -18.1272,-47.5389 l 0,-113.08495 28.8114,0 0,111.04414 q 0,21.72864 10.084,32.05274 10.084,10.32411 30.9723,10.32411 40.5762,0 40.5762,-42.61694 l 0,-110.80405 28.6914,0 z"
       style="font-weight:600;font-size:245.85772705px;font-family:'Open Sans';letter-spacing:-2.73175263;fill:#4e4e4e;fill-opacity:1"
       id="path4141"
       inkscape:connector-curvature="0" /><path
       d="m 1296.8809,211.07194 q 8.5234,0 14.0456,1.20047 l -2.7611,26.29045 q -6.0024,-1.44057 -12.4849,-1.44057 -16.9268,0 -27.491,11.04439 -10.4441,11.04439 -10.4441,28.69141 l 0,69.38758 -28.2112,0 0,-132.77278 22.0887,0 3.7215,23.40931 1.4406,0 q 6.6026,-11.88473 17.1668,-18.8475 10.6843,-6.96276 22.9291,-6.96276 z"
       style="font-weight:600;font-size:245.85772705px;font-family:'Open Sans';letter-spacing:-2.73175263;fill:#4e4e4e;fill-opacity:1"
       id="path4143"
       inkscape:connector-curvature="0" /><path
       d="m 1426.5618,346.24567 -3.9615,-17.40692 -1.4406,0 q -5.8824,9.24367 -16.8067,14.52577 -10.8043,5.2821 -24.7298,5.2821 -24.1296,0 -36.0143,-12.00477 -11.8848,-12.00477 -11.8848,-36.37446 l 0,-86.7945 28.4513,0 0,81.87254 q 0,15.24606 6.2425,22.92912 6.2425,7.563 19.5678,7.563 17.7671,0 26.0504,-10.56419 8.4033,-10.68425 8.4033,-35.65418 l 0,-66.14629 28.3313,0 0,132.77278 -22.2089,0 z"
       style="font-weight:600;font-size:245.85772705px;font-family:'Open Sans';letter-spacing:-2.73175263;fill:#4e4e4e;fill-opacity:1"
       id="path4145"
       inkscape:connector-curvature="0" /><path
       d="m 1598.3794,213.47289 0,15.48616 -22.689,4.20167 q 3.1213,4.20167 5.1621,10.3241 2.0408,6.12243 2.0408,12.96515 0,20.52816 -14.1656,32.29284 -14.1657,11.76468 -39.0156,11.76468 -6.3625,0 -11.5245,-0.96039 -9.1237,5.64225 -9.1237,13.20525 0,4.56182 4.2017,6.84272 4.3217,2.28091 15.7263,2.28091 l 23.1692,0 q 21.9687,0 33.3732,9.36372 11.4046,9.36372 11.4046,27.01074 0,22.56897 -18.6074,34.81384 -18.6074,12.24486 -53.7814,12.24486 -27.1308,0 -41.4165,-9.60381 -14.2856,-9.60382 -14.2856,-27.37088 0,-12.24487 7.683,-20.64821 7.8031,-8.28329 21.7286,-11.52458 -5.6422,-2.40096 -9.3637,-7.68306 -3.6014,-5.40214 -3.6014,-11.28448 0,-7.44296 4.2017,-12.60501 4.2016,-5.16205 12.4849,-10.20406 -10.3241,-4.44176 -16.8067,-14.40572 -6.3625,-10.08401 -6.3625,-23.52936 0,-21.60859 13.5654,-33.49331 13.6854,-11.88472 38.8955,-11.88472 5.6422,0 11.7646,0.84033 6.2425,0.72029 9.3638,1.56062 l 45.9782,0 z M 1494.058,366.89387 q 0,9.12363 8.1632,14.04559 8.2833,4.92195 23.1692,4.92195 23.0492,0 34.3337,-6.60262 11.2845,-6.60263 11.2845,-17.52697 0,-8.64343 -6.2425,-12.36491 -6.1225,-3.60143 -22.9291,-3.60143 l -21.3685,0 q -12.1249,0 -19.3277,5.64224 -7.0828,5.76229 -7.0828,15.48615 z m 12.1248,-110.4439 q 0,12.48497 6.3625,19.20764 6.4826,6.72267 18.4874,6.72267 24.4897,0 24.4897,-26.1704 0,-12.96516 -6.1224,-19.92792 -6.0024,-7.08282 -18.3673,-7.08282 -12.2449,0 -18.6074,6.96277 -6.2425,6.96277 -6.2425,20.28806 z"
       style="font-weight:600;font-size:245.85772705px;font-family:'Open Sans';letter-spacing:-2.73175263;fill:#4e4e4e;fill-opacity:1"
       id="path4147"
       inkscape:connector-curvature="0" /><path
       d="m 1714.0147,346.24567 -3.9616,-17.40692 -1.4405,0 q -5.8824,9.24367 -16.8067,14.52577 -10.8043,5.2821 -24.7298,5.2821 -24.1296,0 -36.0144,-12.00477 -11.8847,-12.00477 -11.8847,-36.37446 l 0,-86.7945 28.4513,0 0,81.87254 q 0,15.24606 6.2425,22.92912 6.2425,7.563 19.5678,7.563 17.767,0 26.0503,-10.56419 8.4034,-10.68425 8.4034,-35.65418 l 0,-66.14629 28.3312,0 0,132.77278 -22.2088,0 z"
       style="font-weight:600;font-size:245.85772705px;font-family:'Open Sans';letter-spacing:-2.73175263;fill:#4e4e4e;fill-opacity:1"
       id="path4149"
       inkscape:connector-curvature="0" /><path
       d="m 1856.7808,346.24567 -5.6422,-18.48735 -0.9604,0 q -9.6038,12.12482 -19.3277,16.56658 -9.7238,4.32172 -24.9699,4.32172 -19.5678,0 -30.6122,-10.5642 -10.9243,-10.5642 -10.9243,-29.89188 0,-20.52816 15.246,-30.97231 15.2461,-10.44415 46.4585,-11.40453 l 22.9291,-0.72029 0,-7.08282 q 0,-12.72505 -6.0024,-18.96754 -5.8823,-6.36252 -18.3673,-6.36252 -10.204,0 -19.5677,3.00119 -9.3638,3.00119 -18.0072,7.08281 l -9.1236,-20.16801 q 10.8043,-5.64225 23.6494,-8.52339 12.8451,-3.00119 24.2496,-3.00119 25.3301,0 38.1752,11.04439 12.9651,11.04439 12.9651,34.69379 l 0,89.43555 -20.168,0 z m -42.0167,-19.20764 q 15.3661,0 24.6098,-8.52339 9.3637,-8.64343 9.3637,-24.12959 l 0,-11.52458 -17.0467,0.72029 q -19.928,0.72028 -29.0516,6.72267 -9.0036,5.88234 -9.0036,18.12721 0,8.88353 5.2821,13.80548 5.2821,4.80191 15.8463,4.80191 z"
       style="font-weight:600;font-size:245.85772705px;font-family:'Open Sans';letter-spacing:-2.73175263;fill:#4e4e4e;fill-opacity:1"
       id="path4151"
       inkscape:connector-curvature="0" /><path
       d="m 1893.4247,213.47289 30.7322,0 27.0107,75.26992 q 6.1225,16.08639 8.1633,30.25202 l 0.9604,0 q 1.0804,-6.60262 3.9615,-15.96634 2.8812,-9.48377 30.4922,-89.5556 l 30.4921,0 -56.7826,150.41979 q -15.4861,41.41646 -51.6205,41.41646 -9.3637,0 -18.2473,-2.04081 l 0,-22.32887 q 6.3626,1.44057 14.5258,1.44057 20.4081,0 28.6914,-23.6494 l 4.922,-12.48496 -53.3012,-132.77278 z"
       style="font-weight:600;font-size:245.85772705px;font-family:'Open Sans';letter-spacing:-2.73175263;fill:#4e4e4e;fill-opacity:1"
       id="path4153"
       inkscape:connector-curvature="0" /></g></svg>