<?xml version="1.0" encoding="UTF-8" standalone="no"?>
<!-- Generator: Adobe Illustrator 19.0.0, SVG Export Plug-In . SVG Version: 6.00 Build 0)  -->

<svg
   xmlns:dc="http://purl.org/dc/elements/1.1/"
   xmlns:cc="http://creativecommons.org/ns#"
   xmlns:rdf="http://www.w3.org/1999/02/22-rdf-syntax-ns#"
   xmlns:svg="http://www.w3.org/2000/svg"
   xmlns="http://www.w3.org/2000/svg"
   xmlns:sodipodi="http://sodipodi.sourceforge.net/DTD/sodipodi-0.dtd"
   xmlns:inkscape="http://www.inkscape.org/namespaces/inkscape"
   version="1.1"
   id="Layer_1"
   x="0px"
   y="0px"
   viewBox="428.2 1882.7 611.9 200"
   style="enable-background:new 428.2 1882.7 611.9 200;"
   xml:space="preserve"
   inkscape:version="0.91 r13725"
   sodipodi:docname="logo-white.svg"><metadata
     id="metadata93"><rdf:RDF><cc:Work
         rdf:about=""><dc:format>image/svg+xml</dc:format><dc:type
           rdf:resource="http://purl.org/dc/dcmitype/StillImage" /></cc:Work></rdf:RDF></metadata><defs
     id="defs91" /><sodipodi:namedview
     pagecolor="#ffffff"
     bordercolor="#666666"
     borderopacity="1"
     objecttolerance="10"
     gridtolerance="10"
     guidetolerance="10"
     inkscape:pageopacity="0"
     inkscape:pageshadow="2"
     inkscape:window-width="1920"
     inkscape:window-height="1017"
     id="namedview89"
     showgrid="false"
     showguides="true"
     inkscape:guide-bbox="true"
     inkscape:zoom="0.665621"
     inkscape:cx="-20.51847"
     inkscape:cy="91.581878"
     inkscape:window-x="3192"
     inkscape:window-y="-8"
     inkscape:window-maximized="1"
     inkscape:current-layer="Layer_1"><sodipodi:guide
       position="338.96916,48.63879"
       orientation="1,0"
       id="guide4357" /><sodipodi:guide
       position="432.36684,343.6626"
       orientation="0,1"
       id="guide4359" /><sodipodi:guide
       position="418.78184,87.700058"
       orientation="0,1"
       id="guide4361" /><sodipodi:guide
       position="393.61737,39.624651"
       orientation="0,1"
       id="guide4365" /></sodipodi:namedview><style
     type="text/css"
     id="style3">
	.st0{fill:#FFFFFF;}
</style><path
     class="st0"
     d="m 628.1,2042.4 -32,0 0,-5.8 12.2,-12.3 c 3.6,-3.7 6,-6.3 7.2,-7.8 1.2,-1.5 2,-3 2.6,-4.3 0.5,-1.4 0.8,-2.8 0.8,-4.4 0,-2.1 -0.6,-3.8 -1.9,-5 -1.3,-1.2 -3.1,-1.8 -5.3,-1.8 -1.8,0 -3.6,0.3 -5.3,1 -1.7,0.7 -3.6,1.9 -5.9,3.6 l -4.1,-5 c 2.6,-2.2 5.2,-3.8 7.7,-4.7 2.5,-0.9 5.1,-1.4 7.9,-1.4 4.4,0 7.9,1.1 10.6,3.4 2.7,2.3 4,5.4 4,9.3 0,2.1 -0.4,4.2 -1.1,6.1 -0.8,1.9 -1.9,3.9 -3.5,5.9 -1.6,2 -4.2,4.8 -7.9,8.3 l -8.2,8 0,0.3 22.4,0 -0.2,6.6 0,0 z"
     id="path13"
     inkscape:connector-curvature="0"
     style="fill:#ffffff" /><path
     class="st0"
     d="m 665.9,2018.8 c 0,8.2 -1.3,14.3 -4,18.3 -2.7,4 -6.7,6 -12.1,6 -5.3,0 -9.2,-2.1 -12,-6.2 -2.7,-4.1 -4.1,-10.2 -4.1,-18.1 0,-8.3 1.3,-14.5 4,-18.4 2.6,-4 6.7,-5.9 12.1,-5.9 5.3,0 9.3,2.1 12,6.2 2.7,4.1 4.1,10.1 4.1,18.1 z m -24.4,0 c 0,6.4 0.7,11 2,13.8 1.3,2.8 3.4,4.1 6.4,4.1 2.9,0 5,-1.4 6.4,-4.2 1.3,-2.8 2,-7.4 2,-13.7 0,-6.3 -0.7,-10.9 -2,-13.8 -1.3,-2.8 -3.5,-4.3 -6.4,-4.3 -2.9,0 -5,1.4 -6.4,4.2 -1.4,2.9 -2,7.4 -2,13.9 z"
     id="path15"
     inkscape:connector-curvature="0"
     style="fill:#ffffff" /><path
     class="st0"
     d="m 693.9,2042.4 -7.6,0 0,-30.5 c 0,-3.6 0.1,-6.5 0.3,-8.7 -0.5,0.5 -1.1,1.1 -1.8,1.7 -0.7,0.6 -3.1,2.6 -7.3,5.9 l -3.8,-4.8 13.9,-10.9 6.3,0 0,47.3 0,0 z"
     id="path17"
     inkscape:connector-curvature="0"
     style="fill:#ffffff" /><path
     class="st0"
     d="m 725.5,2012.8 c 4.8,0 8.5,1.3 11.3,3.8 2.8,2.5 4.2,6 4.2,10.3 0,5 -1.6,9 -4.7,11.8 -3.2,2.8 -7.6,4.3 -13.5,4.3 -5.3,0 -9.4,-0.9 -12.5,-2.6 l 0,-6.9 c 1.7,1 3.8,1.8 6,2.3 2.3,0.5 4.4,0.8 6.3,0.8 3.4,0 6,-0.8 7.8,-2.3 1.8,-1.5 2.7,-3.8 2.7,-6.7 0,-5.6 -3.6,-8.5 -10.8,-8.5 -1,0 -2.3,0.1 -3.7,0.3 -1.5,0.2 -2.8,0.4 -3.9,0.7 l -3.4,-2 1.8,-23.1 24.6,0 0,6.8 -17.9,0 -1.1,11.7 c 0.8,-0.1 1.7,-0.3 2.8,-0.5 1.1,-0.1 2.4,-0.2 4,-0.2 z"
     id="path19"
     inkscape:connector-curvature="0"
     style="fill:#ffffff" /><g
     id="g37"><path
       class="st0"
       d="m 814.2,1942.7 c 0,8.9 -2.4,15.8 -7.3,20.6 -4.9,4.8 -11.7,7.2 -20.6,7.2 l -17.2,0 0,-53.5 18.4,0 c 8.5,0 15.1,2.2 19.7,6.6 4.7,4.5 7,10.8 7,19.1 z m -14.9,0.5 c 0,-4.9 -1,-8.5 -2.9,-10.9 -1.9,-2.4 -4.8,-3.5 -8.8,-3.5 l -4.2,0 0,29.9 3.2,0 c 4.4,0 7.6,-1.3 9.6,-3.8 2.1,-2.6 3.1,-6.5 3.1,-11.7 z"
       id="path39"
       inkscape:connector-curvature="0"
       style="fill:#ffffff" /></g><g
     id="g41"><path
       class="st0"
       d="m 838.3,1971.2 c -6.9,0 -12.2,-1.8 -16,-5.5 -3.8,-3.7 -5.7,-8.9 -5.7,-15.7 0,-7 1.8,-12.4 5.3,-16.1 3.5,-3.7 8.5,-5.6 15,-5.6 6.2,0 11,1.6 14.4,4.9 3.4,3.3 5.1,7.9 5.1,14.1 l 0,6.4 -25.4,0 c 0.1,2.3 0.9,4.1 2.5,5.4 1.6,1.3 3.7,2 6.5,2 2.5,0 4.8,-0.2 6.9,-0.7 2.1,-0.5 4.4,-1.3 6.8,-2.4 l 0,10.3 c -2.2,1.2 -4.5,1.9 -6.9,2.4 -2.4,0.4 -5.2,0.5 -8.5,0.5 z m -0.8,-33 c -1.7,0 -3.1,0.5 -4.2,1.6 -1.1,1.1 -1.8,2.7 -2,5 l 12.2,0 c -0.1,-2 -0.6,-3.6 -1.7,-4.8 -1.1,-1.2 -2.5,-1.8 -4.3,-1.8 z"
       id="path43"
       inkscape:connector-curvature="0"
       style="fill:#ffffff" /></g><g
     id="g45"><path
       class="st0"
       d="m 870.7,1970.6 -15.7,-41.4 14.8,0 7,24.5 c 0,0.1 0.1,0.3 0.2,0.6 0.1,0.3 0.1,0.6 0.2,1 0.1,0.4 0.1,0.8 0.2,1.3 0.1,0.5 0.1,0.9 0.1,1.3 l 0.2,0 c 0,-1.3 0.2,-2.6 0.7,-4.1 l 7.3,-24.6 14.8,0 -15.7,41.4 -14.1,0 0,0 z"
       id="path47"
       inkscape:connector-curvature="0"
       style="fill:#ffffff" /></g><g
     id="g49"><path
       class="st0"
       d="m 915.8,1970.6 -14.1,0 0,-53.4 31.4,0 0,11.6 -17.3,0 0,10.2 15.9,0 0,11.6 -15.9,0 0,20 0,0 z"
       id="path51"
       inkscape:connector-curvature="0"
       style="fill:#ffffff" /></g><g
     id="g53"><path
       class="st0"
       d="m 956.3,1971.2 c -6.8,0 -12.1,-1.8 -16,-5.5 -3.8,-3.7 -5.7,-8.9 -5.7,-15.7 0,-7 1.8,-12.4 5.3,-16.1 3.5,-3.7 8.5,-5.6 15,-5.6 6.2,0 11,1.6 14.4,4.9 3.4,3.3 5.1,7.9 5.1,14.1 l 0,6.4 -25.4,0 c 0.1,2.3 0.9,4.1 2.5,5.4 1.6,1.3 3.7,2 6.5,2 2.5,0 4.8,-0.2 6.9,-0.7 2.1,-0.5 4.3,-1.3 6.8,-2.4 l 0,10.3 c -2.2,1.2 -4.5,1.9 -6.9,2.4 -2.4,0.4 -5.2,0.5 -8.5,0.5 z m -0.8,-33 c -1.7,0 -3.1,0.5 -4.2,1.6 -1.1,1.1 -1.8,2.7 -2,5 l 12.2,0 c -0.1,-2 -0.6,-3.6 -1.7,-4.8 -1.1,-1.2 -2.5,-1.8 -4.3,-1.8 z"
       id="path55"
       inkscape:connector-curvature="0"
       style="fill:#ffffff" /></g><g
     id="g57"><path
       class="st0"
       d="m 1009.7,1957.8 c 0,4.4 -1.5,7.8 -4.5,10.1 -3,2.3 -7.3,3.4 -12.9,3.4 -3,0 -5.7,-0.2 -7.9,-0.5 -2.3,-0.3 -4.5,-0.9 -6.9,-1.8 l 0,-11.4 c 2.2,1 4.6,1.8 7.2,2.4 2.6,0.6 5,0.9 7,0.9 3.1,0 4.6,-0.7 4.6,-2.1 0,-0.7 -0.4,-1.4 -1.3,-2 -0.9,-0.6 -3.4,-1.7 -7.5,-3.3 -3.8,-1.6 -6.4,-3.3 -7.9,-5.3 -1.5,-2 -2.3,-4.5 -2.3,-7.5 0,-3.8 1.5,-6.8 4.4,-9 2.9,-2.2 7.1,-3.2 12.5,-3.2 2.7,0 5.3,0.3 7.6,0.9 2.4,0.6 4.8,1.5 7.4,2.6 l -3.8,9.2 c -1.9,-0.8 -3.9,-1.6 -6,-2.2 -2.1,-0.6 -3.8,-0.9 -5.1,-0.9 -2.3,0 -3.5,0.6 -3.5,1.7 0,0.7 0.4,1.3 1.2,1.8 0.8,0.5 3.2,1.5 7,3.1 2.9,1.2 5,2.4 6.4,3.5 1.4,1.1 2.5,2.5 3.1,4 0.8,1.6 1.2,3.5 1.2,5.6 z"
       id="path59"
       inkscape:connector-curvature="0"
       style="fill:#ffffff" /></g><g
     id="g61"><path
       class="st0"
       d="m 1033.2,1959.9 c 1.9,0 4.2,-0.5 6.9,-1.4 l 0,10.4 c -1.9,0.8 -3.7,1.4 -5.5,1.8 -1.7,0.4 -3.8,0.5 -6.1,0.5 -4.8,0 -8.2,-1.2 -10.3,-3.5 -2.1,-2.4 -3.2,-6 -3.2,-10.8 l 0,-17.1 -5,0 0,-5.8 6.3,-4.5 3.7,-8.7 9.3,0 0,8.3 10.1,0 0,10.7 -10.1,0 0,16.1 c 0.1,2.8 1.4,4 3.9,4 z"
       id="path63"
       inkscape:connector-curvature="0"
       style="fill:#ffffff" /></g><g
     id="g67"><path
       class="st0"
       d="m 613.1,1940.6 23.1,0 0,28.8 c -6.3,2.1 -13.2,3.2 -20.7,3.2 -8.2,0 -14.6,-2.4 -19.1,-7.2 -4.5,-4.8 -6.7,-11.6 -6.7,-20.4 0,-8.6 2.5,-15.3 7.4,-20.1 4.9,-4.8 11.8,-7.2 20.7,-7.2 3.4,0 6.5,0.3 9.5,1 3,0.6 5.6,1.4 7.8,2.4 l -4.6,11.3 c -3.8,-1.9 -8.1,-2.8 -12.7,-2.8 -4.2,0 -7.5,1.4 -9.8,4.1 -2.3,2.7 -3.5,6.7 -3.5,11.8 0,5 1,8.8 3.1,11.4 2.1,2.6 5.1,3.9 9,3.9 2.1,0 4.1,-0.2 5.9,-0.6 l 0,-8.4 -9.5,0 0.1,-11.2 0,0 0,0 z"
       id="path69"
       inkscape:connector-curvature="0"
       style="fill:#ffffff" /></g><g
     id="g71"><path
       class="st0"
       d="m 687.9,1943.9 c 0,8.9 -2.5,15.8 -7.4,20.6 -4.9,4.8 -11.8,7.2 -20.7,7.2 l -17.3,0 0,-53.5 18.5,0 c 8.6,0 15.2,2.2 19.9,6.6 4.7,4.5 7,10.9 7,19.1 z m -15,0.5 c 0,-4.9 -1,-8.5 -2.9,-10.9 -1.9,-2.4 -4.9,-3.6 -8.8,-3.6 l -4.2,0 0,29.9 3.2,0 c 4.4,0 7.6,-1.3 9.7,-3.8 2,-2.3 3,-6.2 3,-11.6 z"
       id="path73"
       inkscape:connector-curvature="0"
       style="fill:#ffffff" /></g><g
     id="g75"><path
       class="st0"
       d="m 714.5,1940.6 23.1,0 0,28.8 c -6.3,2.1 -13.1,3.2 -20.7,3.2 -8.2,0 -14.6,-2.4 -19.1,-7.2 -4.5,-4.8 -6.7,-11.6 -6.7,-20.4 0,-8.6 2.5,-15.3 7.4,-20.1 4.9,-4.8 11.8,-7.2 20.7,-7.2 3.4,0 6.5,0.3 9.5,1 3,0.6 5.6,1.4 7.8,2.4 l -4.6,11.3 c -3.9,-1.9 -8.1,-2.8 -12.7,-2.8 -4.2,0 -7.5,1.4 -9.8,4.1 -2.3,2.7 -3.5,6.7 -3.5,11.8 0,5 1,8.8 3.1,11.4 2.1,2.6 5.1,3.9 9,3.9 2.1,0 4.1,-0.2 5.9,-0.6 l 0,-8.4 -9.5,0 0.1,-11.2 0,0 z"
       id="path77"
       inkscape:connector-curvature="0"
       style="fill:#ffffff" /></g><g
     id="g79"><path
       class="st0"
       d="M533.8,2009.1l-79-126.4H433c-4.4,0-6,3-3.8,6.7l53,86.5l0.3,0.4l35.9,57.5L533.8,2009.1z"
       id="path81" /><path
       class="st0"
       d="M546,1989.4c2.3-3.7,2.3-9.7,0-13.4l-53.6-86.6c-2.3-3.7-7.7-6.7-12-6.7h-22l77.2,123.5L546,1989.4z"
       id="path83" /><path
       class="st0"
       d="M501.1,2011.9l-44.2,70.8h23.5c4.3,0,9.8-3,12-6.7l21.4-34.6c0.1-0.1,0.2-0.4,0.6-1l2.2-3.6L501.1,2011.9z"
       id="path85" /><path
       class="st0"
       d="M482.3,1989.4l-53,86.5c-2.3,3.7-0.6,6.7,3.8,6.7h20.3l46-73.6l-15.4-24.8   C483.7,1986.1,483.1,1987.9,482.3,1989.4z"
       id="path87" /></g><g
     transform="matrix(0.27326864,0,0,0.27326864,479.62239,1948.5017)"
     id="g4162"
     style="fill:#000000;fill-opacity:0"><path
       d="m 1190.3693,170.7359 0,113.56514 q 0,19.44773 -8.4034,34.09356 -8.2833,14.52577 -24.1296,22.44892 -15.7262,7.8031 -37.695,7.8031 -32.6529,0 -50.7801,-17.28687 -18.1272,-17.28687 -18.1272,-47.5389 l 0,-113.08495 28.8114,0 0,111.04414 q 0,21.72864 10.084,32.05274 10.084,10.32411 30.9723,10.32411 40.5762,0 40.5762,-42.61694 l 0,-110.80405 28.6914,0 z"
       style="font-weight:600;font-size:245.85772705px;font-family:'Open Sans';letter-spacing:-2.73175263;fill:#000000;fill-opacity:0"
       id="path4141"
       inkscape:connector-curvature="0" /><path
       d="m 1296.8809,211.07194 q 8.5234,0 14.0456,1.20047 l -2.7611,26.29045 q -6.0024,-1.44057 -12.4849,-1.44057 -16.9268,0 -27.491,11.04439 -10.4441,11.04439 -10.4441,28.69141 l 0,69.38758 -28.2112,0 0,-132.77278 22.0887,0 3.7215,23.40931 1.4406,0 q 6.6026,-11.88473 17.1668,-18.8475 10.6843,-6.96276 22.9291,-6.96276 z"
       style="font-weight:600;font-size:245.85772705px;font-family:'Open Sans';letter-spacing:-2.73175263;fill:#000000;fill-opacity:0"
       id="path4143"
       inkscape:connector-curvature="0" /><path
       d="m 1426.5618,346.24567 -3.9615,-17.40692 -1.4406,0 q -5.8824,9.24367 -16.8067,14.52577 -10.8043,5.2821 -24.7298,5.2821 -24.1296,0 -36.0143,-12.00477 -11.8848,-12.00477 -11.8848,-36.37446 l 0,-86.7945 28.4513,0 0,81.87254 q 0,15.24606 6.2425,22.92912 6.2425,7.563 19.5678,7.563 17.7671,0 26.0504,-10.56419 8.4033,-10.68425 8.4033,-35.65418 l 0,-66.14629 28.3313,0 0,132.77278 -22.2089,0 z"
       style="font-weight:600;font-size:245.85772705px;font-family:'Open Sans';letter-spacing:-2.73175263;fill:#000000;fill-opacity:0"
       id="path4145"
       inkscape:connector-curvature="0" /><path
       d="m 1598.3794,213.47289 0,15.48616 -22.689,4.20167 q 3.1213,4.20167 5.1621,10.3241 2.0408,6.12243 2.0408,12.96515 0,20.52816 -14.1656,32.29284 -14.1657,11.76468 -39.0156,11.76468 -6.3625,0 -11.5245,-0.96039 -9.1237,5.64225 -9.1237,13.20525 0,4.56182 4.2017,6.84272 4.3217,2.28091 15.7263,2.28091 l 23.1692,0 q 21.9687,0 33.3732,9.36372 11.4046,9.36372 11.4046,27.01074 0,22.56897 -18.6074,34.81384 -18.6074,12.24486 -53.7814,12.24486 -27.1308,0 -41.4165,-9.60381 -14.2856,-9.60382 -14.2856,-27.37088 0,-12.24487 7.683,-20.64821 7.8031,-8.28329 21.7286,-11.52458 -5.6422,-2.40096 -9.3637,-7.68306 -3.6014,-5.40214 -3.6014,-11.28448 0,-7.44296 4.2017,-12.60501 4.2016,-5.16205 12.4849,-10.20406 -10.3241,-4.44176 -16.8067,-14.40572 -6.3625,-10.08401 -6.3625,-23.52936 0,-21.60859 13.5654,-33.49331 13.6854,-11.88472 38.8955,-11.88472 5.6422,0 11.7646,0.84033 6.2425,0.72029 9.3638,1.56062 l 45.9782,0 z M 1494.058,366.89387 q 0,9.12363 8.1632,14.04559 8.2833,4.92195 23.1692,4.92195 23.0492,0 34.3337,-6.60262 11.2845,-6.60263 11.2845,-17.52697 0,-8.64343 -6.2425,-12.36491 -6.1225,-3.60143 -22.9291,-3.60143 l -21.3685,0 q -12.1249,0 -19.3277,5.64224 -7.0828,5.76229 -7.0828,15.48615 z m 12.1248,-110.4439 q 0,12.48497 6.3625,19.20764 6.4826,6.72267 18.4874,6.72267 24.4897,0 24.4897,-26.1704 0,-12.96516 -6.1224,-19.92792 -6.0024,-7.08282 -18.3673,-7.08282 -12.2449,0 -18.6074,6.96277 -6.2425,6.96277 -6.2425,20.28806 z"
       style="font-weight:600;font-size:245.85772705px;font-family:'Open Sans';letter-spacing:-2.73175263;fill:#000000;fill-opacity:0"
       id="path4147"
       inkscape:connector-curvature="0" /><path
       d="m 1714.0147,346.24567 -3.9616,-17.40692 -1.4405,0 q -5.8824,9.24367 -16.8067,14.52577 -10.8043,5.2821 -24.7298,5.2821 -24.1296,0 -36.0144,-12.00477 -11.8847,-12.00477 -11.8847,-36.37446 l 0,-86.7945 28.4513,0 0,81.87254 q 0,15.24606 6.2425,22.92912 6.2425,7.563 19.5678,7.563 17.767,0 26.0503,-10.56419 8.4034,-10.68425 8.4034,-35.65418 l 0,-66.14629 28.3312,0 0,132.77278 -22.2088,0 z"
       style="font-weight:600;font-size:245.85772705px;font-family:'Open Sans';letter-spacing:-2.73175263;fill:#000000;fill-opacity:0"
       id="path4149"
       inkscape:connector-curvature="0" /><path
       d="m 1856.7808,346.24567 -5.6422,-18.48735 -0.9604,0 q -9.6038,12.12482 -19.3277,16.56658 -9.7238,4.32172 -24.9699,4.32172 -19.5678,0 -30.6122,-10.5642 -10.9243,-10.5642 -10.9243,-29.89188 0,-20.52816 15.246,-30.97231 15.2461,-10.44415 46.4585,-11.40453 l 22.9291,-0.72029 0,-7.08282 q 0,-12.72505 -6.0024,-18.96754 -5.8823,-6.36252 -18.3673,-6.36252 -10.204,0 -19.5677,3.00119 -9.3638,3.00119 -18.0072,7.08281 l -9.1236,-20.16801 q 10.8043,-5.64225 23.6494,-8.52339 12.8451,-3.00119 24.2496,-3.00119 25.3301,0 38.1752,11.04439 12.9651,11.04439 12.9651,34.69379 l 0,89.43555 -20.168,0 z m -42.0167,-19.20764 q 15.3661,0 24.6098,-8.52339 9.3637,-8.64343 9.3637,-24.12959 l 0,-11.52458 -17.0467,0.72029 q -19.928,0.72028 -29.0516,6.72267 -9.0036,5.88234 -9.0036,18.12721 0,8.88353 5.2821,13.80548 5.2821,4.80191 15.8463,4.80191 z"
       style="font-weight:600;font-size:245.85772705px;font-family:'Open Sans';letter-spacing:-2.73175263;fill:#000000;fill-opacity:0"
       id="path4151"
       inkscape:connector-curvature="0" /><path
       d="m 1893.4247,213.47289 30.7322,0 27.0107,75.26992 q 6.1225,16.08639 8.1633,30.25202 l 0.9604,0 q 1.0804,-6.60262 3.9615,-15.96634 2.8812,-9.48377 30.4922,-89.5556 l 30.4921,0 -56.7826,150.41979 q -15.4861,41.41646 -51.6205,41.41646 -9.3637,0 -18.2473,-2.04081 l 0,-22.32887 q 6.3626,1.44057 14.5258,1.44057 20.4081,0 28.6914,-23.6494 l 4.922,-12.48496 -53.3012,-132.77278 z"
       style="font-weight:600;font-size:245.85772705px;font-family:'Open Sans';letter-spacing:-2.73175263;fill:#000000;fill-opacity:0"
       id="path4153"
       inkscape:connector-curvature="0" /></g></svg>