<?xml version="1.0" encoding="UTF-8" standalone="no"?>
<svg
   xmlns:dc="http://purl.org/dc/elements/1.1/"
   xmlns:cc="http://creativecommons.org/ns#"
   xmlns:rdf="http://www.w3.org/1999/02/22-rdf-syntax-ns#"
   xmlns:svg="http://www.w3.org/2000/svg"
   xmlns="http://www.w3.org/2000/svg"
   xmlns:sodipodi="http://sodipodi.sourceforge.net/DTD/sodipodi-0.dtd"
   xmlns:inkscape="http://www.inkscape.org/namespaces/inkscape"
   width="2145"
   height="500.20001"
   viewBox="40.3 -0.1 2145 500.2"
   id="svg2"
   version="1.1"
   inkscape:version="0.91 r13725"
   sodipodi:docname="gdg-logo.svg">
  <metadata
     id="metadata20">
    <rdf:RDF>
      <cc:Work
         rdf:about="">
        <dc:format>image/svg+xml</dc:format>
        <dc:type
           rdf:resource="http://purl.org/dc/dcmitype/StillImage" />
        <dc:title />
      </cc:Work>
    </rdf:RDF>
  </metadata>
  <defs
     id="defs18" />
  <sodipodi:namedview
     pagecolor="#ffffff"
     bordercolor="#666666"
     borderopacity="1"
     objecttolerance="10"
     gridtolerance="10"
     guidetolerance="10"
     inkscape:pageopacity="0"
     inkscape:pageshadow="2"
     inkscape:window-width="1280"
     inkscape:window-height="657"
     id="namedview16"
     showgrid="false"
     showguides="true"
     inkscape:guide-bbox="true"
     inkscape:zoom="0.22627417"
     inkscape:cx="1493.3142"
     inkscape:cy="181.17275"
     inkscape:window-x="-8"
     inkscape:window-y="-8"
     inkscape:window-maximized="1"
     inkscape:current-layer="g4139">
    <inkscape:grid
       type="xygrid"
       id="grid4161" />
  </sodipodi:namedview>
  <g
     id="g4139">
    <g
       style="fill:#757575"
       id="g4">
      <path
         inkscape:connector-curvature="0"
         id="path6"
         d="M 304.2,316.1 106.7,0 52.2,0 C 41.3,0 37.1,7.6 42.8,16.8 l 132.6,216.4 0.7,1.1 89.8,143.8 38.3,-62 z m 30.5,-49.3 c 5.7,-9.2 5.7,-24.3 0,-33.6 L 200.7,16.7 C 195,7.5 181.4,-0.1 170.6,-0.1 l -55,0 193,308.9 26.1,-42 z M 222.5,323 111.9,500 l 58.8,0 c 10.8,0 24.4,-7.5 30.1,-16.8 l 53.5,-86.5 c 0.2,-0.3 0.6,-1 1.5,-2.4 l 5.6,-9.1 L 222.5,323 Z M 175.4,266.8 42.8,483.3 c -5.7,9.3 -1.4,16.8 9.4,16.8 l 50.7,0 L 218,315.9 179.4,254 c -0.5,4.8 -1.8,9.3 -4,12.8 z" />
    </g>
    <g
       style="fill:#757575"
       id="g8">
      <path
         inkscape:connector-curvature="0"
         id="path10"
         d="m 509,241.7 77.1,0 0,96.3 c -20.9,7.2 -44,10.8 -69.1,10.8 -27.5,0 -48.8,-8 -63.9,-24 -15,-16 -22.6,-38.7 -22.6,-68.3 0,-28.8 8.2,-51.3 24.7,-67.4 16.5,-16.1 39.5,-24.1 69.2,-24.1 11.2,0 21.9,1.1 31.8,3.2 10,2.1 18.7,4.8 26.1,8.1 L 567,214.2 c -12.9,-6.4 -27,-9.5 -42.4,-9.5 -14.1,0 -25,4.6 -32.7,13.8 -7.7,9.2 -11.6,22.3 -11.6,39.3 0,16.7 3.5,29.4 10.5,38.2 7,8.8 17,13.1 30.1,13.1 7.2,0 13.8,-0.7 19.8,-2.1 l 0,-28 -31.7,0 0,-37.3 z m 250.4,11.5 c 0,29.8 -8.2,52.8 -24.6,68.9 -16.4,16.1 -39.5,24.2 -69.2,24.2 l -57.8,0 0,-178.7 61.8,0 c 28.7,0 50.8,7.3 66.4,22 15.6,14.7 23.4,35.9 23.4,63.6 z m -50.1,1.7 c 0,-16.4 -3.2,-28.5 -9.7,-36.4 -6.5,-7.9 -16.3,-11.9 -29.5,-11.9 l -14.1,0 0,100.1 10.8,0 c 14.7,0 25.4,-4.3 32.3,-12.8 6.8,-8.5 10.2,-21.5 10.2,-39 z m 139.2,-13.2 77.1,0 0,96.3 c -20.9,7.2 -44,10.8 -69.1,10.8 -27.5,0 -48.8,-8 -63.9,-24 -15,-16 -22.6,-38.7 -22.6,-68.3 0,-28.8 8.2,-51.3 24.7,-67.4 16.5,-16.1 39.5,-24.1 69.2,-24.1 11.2,0 21.9,1.1 31.8,3.2 10,2.1 18.7,4.8 26.1,8.1 l -15.3,37.9 c -12.9,-6.4 -27,-9.5 -42.4,-9.5 -14.1,0 -25,4.6 -32.7,13.8 -7.7,9.2 -11.6,22.3 -11.6,39.3 0,16.7 3.5,29.4 10.5,38.2 7,8.8 17,13.1 30.1,13.1 7.2,0 13.8,-0.7 19.8,-2.1 l 0,-28 -31.9,0 0,-37.3 0.2,0 z" />
    </g>
    <g
       id="g4162">
      <path
         d="m 1190.3693,170.7359 0,113.56514 q 0,19.44773 -8.4034,34.09356 -8.2833,14.52577 -24.1296,22.44892 -15.7262,7.8031 -37.695,7.8031 -32.6529,0 -50.7801,-17.28687 -18.1272,-17.28687 -18.1272,-47.5389 l 0,-113.08495 28.8114,0 0,111.04414 q 0,21.72864 10.084,32.05274 10.084,10.32411 30.9723,10.32411 40.5762,0 40.5762,-42.61694 l 0,-110.80405 28.6914,0 z"
         style="font-weight:600;font-size:245.85772705px;font-family:'Open Sans';letter-spacing:-2.73175263;fill:#757575;fill-opacity:1"
         id="path4141"
         inkscape:connector-curvature="0" />
      <path
         d="m 1296.8809,211.07194 q 8.5234,0 14.0456,1.20047 l -2.7611,26.29045 q -6.0024,-1.44057 -12.4849,-1.44057 -16.9268,0 -27.491,11.04439 -10.4441,11.04439 -10.4441,28.69141 l 0,69.38758 -28.2112,0 0,-132.77278 22.0887,0 3.7215,23.40931 1.4406,0 q 6.6026,-11.88473 17.1668,-18.8475 10.6843,-6.96276 22.9291,-6.96276 z"
         style="font-weight:600;font-size:245.85772705px;font-family:'Open Sans';letter-spacing:-2.73175263;fill:#757575;fill-opacity:1"
         id="path4143"
         inkscape:connector-curvature="0" />
      <path
         d="m 1426.5618,346.24567 -3.9615,-17.40692 -1.4406,0 q -5.8824,9.24367 -16.8067,14.52577 -10.8043,5.2821 -24.7298,5.2821 -24.1296,0 -36.0143,-12.00477 -11.8848,-12.00477 -11.8848,-36.37446 l 0,-86.7945 28.4513,0 0,81.87254 q 0,15.24606 6.2425,22.92912 6.2425,7.563 19.5678,7.563 17.7671,0 26.0504,-10.56419 8.4033,-10.68425 8.4033,-35.65418 l 0,-66.14629 28.3313,0 0,132.77278 -22.2089,0 z"
         style="font-weight:600;font-size:245.85772705px;font-family:'Open Sans';letter-spacing:-2.73175263;fill:#757575;fill-opacity:1"
         id="path4145"
         inkscape:connector-curvature="0" />
      <path
         d="m 1598.3794,213.47289 0,15.48616 -22.689,4.20167 q 3.1213,4.20167 5.1621,10.3241 2.0408,6.12243 2.0408,12.96515 0,20.52816 -14.1656,32.29284 -14.1657,11.76468 -39.0156,11.76468 -6.3625,0 -11.5245,-0.96039 -9.1237,5.64225 -9.1237,13.20525 0,4.56182 4.2017,6.84272 4.3217,2.28091 15.7263,2.28091 l 23.1692,0 q 21.9687,0 33.3732,9.36372 11.4046,9.36372 11.4046,27.01074 0,22.56897 -18.6074,34.81384 -18.6074,12.24486 -53.7814,12.24486 -27.1308,0 -41.4165,-9.60381 -14.2856,-9.60382 -14.2856,-27.37088 0,-12.24487 7.683,-20.64821 7.8031,-8.28329 21.7286,-11.52458 -5.6422,-2.40096 -9.3637,-7.68306 -3.6014,-5.40214 -3.6014,-11.28448 0,-7.44296 4.2017,-12.60501 4.2016,-5.16205 12.4849,-10.20406 -10.3241,-4.44176 -16.8067,-14.40572 -6.3625,-10.08401 -6.3625,-23.52936 0,-21.60859 13.5654,-33.49331 13.6854,-11.88472 38.8955,-11.88472 5.6422,0 11.7646,0.84033 6.2425,0.72029 9.3638,1.56062 l 45.9782,0 z M 1494.058,366.89387 q 0,9.12363 8.1632,14.04559 8.2833,4.92195 23.1692,4.92195 23.0492,0 34.3337,-6.60262 11.2845,-6.60263 11.2845,-17.52697 0,-8.64343 -6.2425,-12.36491 -6.1225,-3.60143 -22.9291,-3.60143 l -21.3685,0 q -12.1249,0 -19.3277,5.64224 -7.0828,5.76229 -7.0828,15.48615 z m 12.1248,-110.4439 q 0,12.48497 6.3625,19.20764 6.4826,6.72267 18.4874,6.72267 24.4897,0 24.4897,-26.1704 0,-12.96516 -6.1224,-19.92792 -6.0024,-7.08282 -18.3673,-7.08282 -12.2449,0 -18.6074,6.96277 -6.2425,6.96277 -6.2425,20.28806 z"
         style="font-weight:600;font-size:245.85772705px;font-family:'Open Sans';letter-spacing:-2.73175263;fill:#757575;fill-opacity:1"
         id="path4147"
         inkscape:connector-curvature="0" />
      <path
         d="m 1714.0147,346.24567 -3.9616,-17.40692 -1.4405,0 q -5.8824,9.24367 -16.8067,14.52577 -10.8043,5.2821 -24.7298,5.2821 -24.1296,0 -36.0144,-12.00477 -11.8847,-12.00477 -11.8847,-36.37446 l 0,-86.7945 28.4513,0 0,81.87254 q 0,15.24606 6.2425,22.92912 6.2425,7.563 19.5678,7.563 17.767,0 26.0503,-10.56419 8.4034,-10.68425 8.4034,-35.65418 l 0,-66.14629 28.3312,0 0,132.77278 -22.2088,0 z"
         style="font-weight:600;font-size:245.85772705px;font-family:'Open Sans';letter-spacing:-2.73175263;fill:#757575;fill-opacity:1"
         id="path4149"
         inkscape:connector-curvature="0" />
      <path
         d="m 1856.7808,346.24567 -5.6422,-18.48735 -0.9604,0 q -9.6038,12.12482 -19.3277,16.56658 -9.7238,4.32172 -24.9699,4.32172 -19.5678,0 -30.6122,-10.5642 -10.9243,-10.5642 -10.9243,-29.89188 0,-20.52816 15.246,-30.97231 15.2461,-10.44415 46.4585,-11.40453 l 22.9291,-0.72029 0,-7.08282 q 0,-12.72505 -6.0024,-18.96754 -5.8823,-6.36252 -18.3673,-6.36252 -10.204,0 -19.5677,3.00119 -9.3638,3.00119 -18.0072,7.08281 l -9.1236,-20.16801 q 10.8043,-5.64225 23.6494,-8.52339 12.8451,-3.00119 24.2496,-3.00119 25.3301,0 38.1752,11.04439 12.9651,11.04439 12.9651,34.69379 l 0,89.43555 -20.168,0 z m -42.0167,-19.20764 q 15.3661,0 24.6098,-8.52339 9.3637,-8.64343 9.3637,-24.12959 l 0,-11.52458 -17.0467,0.72029 q -19.928,0.72028 -29.0516,6.72267 -9.0036,5.88234 -9.0036,18.12721 0,8.88353 5.2821,13.80548 5.2821,4.80191 15.8463,4.80191 z"
         style="font-weight:600;font-size:245.85772705px;font-family:'Open Sans';letter-spacing:-2.73175263;fill:#757575;fill-opacity:1"
         id="path4151"
         inkscape:connector-curvature="0" />
      <path
         d="m 1893.4247,213.47289 30.7322,0 27.0107,75.26992 q 6.1225,16.08639 8.1633,30.25202 l 0.9604,0 q 1.0804,-6.60262 3.9615,-15.96634 2.8812,-9.48377 30.4922,-89.5556 l 30.4921,0 -56.7826,150.41979 q -15.4861,41.41646 -51.6205,41.41646 -9.3637,0 -18.2473,-2.04081 l 0,-22.32887 q 6.3626,1.44057 14.5258,1.44057 20.4081,0 28.6914,-23.6494 l 4.922,-12.48496 -53.3012,-132.77278 z"
         style="font-weight:600;font-size:245.85772705px;font-family:'Open Sans';letter-spacing:-2.73175263;fill:#757575;fill-opacity:1"
         id="path4153"
         inkscape:connector-curvature="0" />
    </g>
  </g>
</svg>
