<?xml version="1.0" encoding="utf-8"?>
<!-- Generator: Adobe Illustrator 16.0.0, SVG Export Plug-In . SVG Version: 6.00 Build 0)  -->
<!DOCTYPE svg PUBLIC "-//W3C//DTD SVG 1.1//EN" "http://www.w3.org/Graphics/SVG/1.1/DTD/svg11.dtd">
<svg version="1.1" id="Layer_1" xmlns="http://www.w3.org/2000/svg" xmlns:xlink="http://www.w3.org/1999/xlink" x="0px" y="0px"
	 width="283.46px" height="340.16px" viewBox="0 0 283.46 340.16" enable-background="new 0 0 283.46 340.16" xml:space="preserve">
<polygon fill="#055DA0" points="106.211,128.613 134.38,170.862 190.634,151.792 165.13,94.695 "/>
<polygon fill="#055DA0" points="104.883,117.634 184.976,147.157 166.874,91.361 "/>
<polygon opacity="0.5" fill="#3571B7" points="105.081,113.291 141.724,153.729 159.083,97.701 "/>
<path opacity="0.5" fill="#3D79BD" d="M175.505,151.573l7.635-5.719l-2.945-6.093l-9.225,2.431
	c-1.797-2.712-3.898-5.138-6.234-7.249l3.793-8.861l-5.598-3.805l-6.838,6.781c-1.992-0.992-4.072-1.799-6.203-2.432
	c-4.898,15.356-9.314,30.735-13.6,46.12c14.352-1.68,27.223-8.994,40.859-13.463C176.866,156.698,176.333,154.114,175.505,151.573z"
	/>
<path fill="#3D79BD" d="M147.144,125.908l-1.154-9.648l-6.752-0.494l-2.537,9.322c-3.117,0.182-6.244,0.748-9.314,1.721
	l-5.828-7.781l-6.094,2.947l2.457,9.324c-2.627,1.713-4.984,3.719-7.055,5.941c8.703,11.962,16.779,24.418,25.301,35.944
	c4.324-15.53,8.777-31.054,13.723-46.557C148.983,126.357,148.067,126.111,147.144,125.908z"/>
<polygon fill="#005EA4" points="146.575,80.38 105.538,102.076 116.755,123.904 179.214,90.783 "/>
<polygon fill="#2082C5" points="200.659,132.464 179.235,90.781 157.769,102.179 190.392,165.616 "/>
<polygon fill="#21A7DF" points="149.372,187.424 190.409,165.639 179.192,143.901 116.72,176.99 "/>
<polygon fill="#2DBEEF" points="95.303,135.308 116.728,176.992 138.134,165.655 105.54,102.142 "/>
<polyline opacity="0.5" fill="#FFFFFF" points="116.728,176.99 138.134,165.655 105.54,102.142 "/>
<polyline opacity="0.5" fill="#FFFFFF" points="190.409,165.641 179.192,143.901 116.72,176.992 "/>
<polyline opacity="0.5" fill="#FFFFFF" points="179.235,90.781 157.769,102.179 190.392,165.616 "/>
<polyline opacity="0.5" fill="#FFFFFF" points="105.538,102.074 116.755,123.904 179.214,90.783 "/>
<g>
	<path fill="#005EA4" d="M68.083,238.789c-0.328-0.52-0.725-0.932-1.188-1.234c-0.461-0.305-1.035-0.457-1.719-0.457
		c-0.381,0-0.734,0.074-1.064,0.219c-0.328,0.146-0.613,0.342-0.854,0.59c-0.242,0.246-0.432,0.535-0.57,0.863
		c-0.141,0.33-0.209,0.686-0.209,1.064c0,0.381,0.078,0.707,0.236,0.979c0.158,0.273,0.365,0.514,0.617,0.723
		c0.254,0.209,0.533,0.389,0.836,0.541c0.305,0.152,0.602,0.299,0.895,0.438l2.734,1.424c0.545,0.344,0.953,0.742,1.227,1.197
		c0.271,0.457,0.408,1.008,0.408,1.654c0,0.596-0.123,1.146-0.371,1.652c-0.246,0.506-0.578,0.947-0.996,1.32
		s-0.896,0.666-1.436,0.875s-1.098,0.313-1.682,0.313c-1,0-1.871-0.281-2.611-0.846c-0.742-0.563-1.277-1.307-1.605-2.232
		l0.797-0.361c0.305,0.76,0.738,1.381,1.303,1.863c0.563,0.48,1.281,0.721,2.156,0.721c0.469,0,0.918-0.086,1.348-0.256
		c0.432-0.172,0.809-0.408,1.131-0.713c0.324-0.305,0.58-0.662,0.77-1.072c0.191-0.412,0.285-0.859,0.285-1.34
		c0-0.406-0.092-0.758-0.275-1.055c-0.184-0.299-0.418-0.559-0.703-0.779s-0.598-0.418-0.939-0.59
		c-0.342-0.17-0.666-0.332-0.969-0.484l-2.586-1.367c-0.48-0.291-0.848-0.648-1.102-1.074c-0.254-0.424-0.379-0.922-0.379-1.49
		c0-0.533,0.092-1.02,0.275-1.463s0.438-0.828,0.76-1.15s0.709-0.572,1.158-0.75s0.941-0.266,1.473-0.266
		c0.723,0,1.4,0.18,2.033,0.541s1.121,0.852,1.463,1.473L68.083,238.789z"/>
	<path fill="#005EA4" d="M75.417,241.791c0.646,0,1.252,0.117,1.814,0.352c0.564,0.234,1.053,0.555,1.463,0.959
		c0.412,0.406,0.738,0.891,0.979,1.455c0.242,0.563,0.361,1.168,0.361,1.814c0,0.645-0.119,1.25-0.361,1.814
		c-0.24,0.563-0.566,1.047-0.979,1.453c-0.41,0.404-0.898,0.725-1.463,0.959c-0.563,0.234-1.168,0.352-1.814,0.352
		c-0.633,0-1.225-0.121-1.775-0.361s-1.033-0.57-1.445-0.988c-0.41-0.418-0.736-0.902-0.977-1.453
		c-0.242-0.551-0.361-1.137-0.361-1.758c0-0.633,0.117-1.229,0.352-1.785s0.557-1.045,0.969-1.463
		c0.41-0.418,0.896-0.748,1.453-0.988S74.785,241.791,75.417,241.791z M75.361,242.59c-0.52,0-1.004,0.102-1.453,0.303
		c-0.449,0.203-0.836,0.479-1.158,0.828c-0.324,0.348-0.578,0.752-0.762,1.215s-0.275,0.947-0.275,1.453
		c0,0.494,0.092,0.969,0.275,1.426c0.184,0.455,0.441,0.857,0.77,1.207c0.33,0.348,0.717,0.623,1.16,0.826s0.924,0.303,1.443,0.303
		c0.533,0,1.033-0.094,1.502-0.283c0.469-0.191,0.873-0.457,1.215-0.799s0.611-0.74,0.809-1.197
		c0.195-0.455,0.295-0.949,0.295-1.482c0-0.543-0.1-1.047-0.295-1.51c-0.197-0.463-0.467-0.865-0.809-1.207
		s-0.744-0.607-1.205-0.797C76.41,242.684,75.906,242.59,75.361,242.59z"/>
	<path fill="#005EA4" d="M82.96,250.76h-0.854v-7.98h-0.969v-0.799h0.969v-3.932c0-0.33,0.016-0.697,0.047-1.104
		c0.031-0.404,0.129-0.752,0.295-1.045c0.201-0.354,0.479-0.619,0.826-0.797s0.725-0.266,1.131-0.266
		c0.277,0,0.531,0.043,0.76,0.133v0.779c-0.113-0.025-0.229-0.051-0.342-0.076c-0.115-0.025-0.234-0.039-0.361-0.039
		c-0.367,0-0.652,0.084-0.855,0.248s-0.352,0.373-0.445,0.627c-0.096,0.254-0.152,0.531-0.172,0.836
		c-0.02,0.303-0.029,0.596-0.029,0.873v3.762h2.205v0.799H82.96V250.76z"/>
	<path fill="#005EA4" d="M87.617,250.76h-0.855v-7.98h-0.969v-0.799h0.969v-3.135h0.855v3.135h1.539v0.799h-1.539V250.76z"/>
	<path fill="#005EA4" d="M93.24,249.182l3.098-7.676l3.115,7.676l3.041-7.201h0.873l-3.971,9.254l-3.098-7.582l-3.078,7.582
		l-3.951-9.254h0.875L93.24,249.182z"/>
	<path fill="#005EA4" d="M112.638,250.76h-0.855v-1.578h-0.037c-0.164,0.279-0.371,0.529-0.617,0.752
		c-0.248,0.221-0.52,0.408-0.816,0.561c-0.299,0.15-0.611,0.266-0.941,0.342s-0.652,0.113-0.968,0.113
		c-0.672,0-1.273-0.121-1.805-0.361c-0.533-0.24-0.986-0.57-1.359-0.988s-0.662-0.908-0.863-1.473
		c-0.203-0.563-0.305-1.168-0.305-1.814c0-0.645,0.102-1.244,0.305-1.795c0.201-0.551,0.486-1.029,0.854-1.434
		c0.367-0.406,0.818-0.723,1.35-0.951c0.531-0.227,1.127-0.342,1.785-0.342c0.685,0,1.328,0.146,1.929,0.438
		s1.086,0.715,1.453,1.273h0.037v-1.521h0.855V250.76z M108.326,242.59c-0.506,0-0.969,0.104-1.387,0.313s-0.775,0.488-1.074,0.836
		c-0.297,0.35-0.529,0.748-0.693,1.197s-0.246,0.91-0.246,1.377c0,0.508,0.078,0.992,0.236,1.455
		c0.158,0.461,0.391,0.871,0.693,1.225c0.305,0.355,0.668,0.637,1.094,0.846c0.424,0.209,0.902,0.313,1.434,0.313
		c0.557,0,1.05-0.104,1.482-0.313c0.43-0.209,0.791-0.494,1.082-0.855c0.293-0.361,0.514-0.779,0.666-1.254s0.229-0.979,0.229-1.51
		c0-0.508-0.084-0.982-0.248-1.426s-0.402-0.826-0.713-1.148c-0.311-0.324-0.68-0.58-1.111-0.77
		C109.339,242.684,108.857,242.59,108.326,242.59z"/>
	<path fill="#005EA4" d="M116.419,243.121h0.039c0.176-0.404,0.42-0.729,0.73-0.969s0.699-0.361,1.168-0.361
		c0.178,0,0.34,0.02,0.486,0.057c0.145,0.039,0.293,0.09,0.445,0.152l-0.455,0.76c-0.102-0.063-0.199-0.107-0.295-0.133
		s-0.199-0.037-0.314-0.037c-0.48,0-0.846,0.133-1.092,0.398s-0.424,0.59-0.531,0.969c-0.109,0.381-0.166,0.783-0.172,1.207
		s-0.01,0.795-0.01,1.111v4.484h-0.855v-8.779h0.855V243.121z"/>
	<path fill="#005EA4" d="M120.847,246.445c-0.014,0.559,0.066,1.064,0.238,1.521c0.17,0.455,0.414,0.846,0.73,1.168
		s0.693,0.574,1.131,0.75c0.438,0.178,0.908,0.266,1.416,0.266c0.684,0,1.291-0.182,1.822-0.551
		c0.533-0.367,0.957-0.848,1.273-1.443l0.723,0.418c-0.406,0.76-0.943,1.346-1.615,1.758s-1.443,0.617-2.318,0.617
		c-0.646,0-1.232-0.123-1.758-0.371c-0.525-0.246-0.975-0.578-1.348-0.996c-0.375-0.418-0.66-0.906-0.855-1.463
		c-0.197-0.559-0.295-1.146-0.295-1.768c0-0.607,0.102-1.188,0.305-1.738c0.201-0.551,0.49-1.035,0.863-1.453
		c0.375-0.418,0.82-0.752,1.34-0.998c0.52-0.248,1.102-0.371,1.748-0.371c0.658,0,1.252,0.123,1.777,0.371
		c0.525,0.246,0.969,0.582,1.33,1.006c0.361,0.426,0.637,0.92,0.826,1.482c0.189,0.564,0.285,1.162,0.285,1.795H120.847z
		 M127.61,245.648c-0.051-0.406-0.168-0.791-0.352-1.158c-0.184-0.369-0.424-0.695-0.723-0.979c-0.297-0.285-0.635-0.51-1.016-0.676
		c-0.381-0.164-0.799-0.246-1.254-0.246c-0.443,0-0.865,0.082-1.264,0.246c-0.398,0.166-0.75,0.387-1.055,0.666
		c-0.303,0.277-0.555,0.602-0.75,0.969c-0.197,0.367-0.314,0.76-0.352,1.178H127.61z"/>
	<path fill="#005EA4" d="M137.415,237.289v5.205h5.775v0.855h-5.775v6.555h5.928v0.855h-6.84v-14.326h6.84v0.855H137.415z"/>
	<path fill="#005EA4" d="M146.913,243.35h0.039c0.254-0.482,0.607-0.861,1.064-1.141c0.455-0.277,0.969-0.418,1.539-0.418
		c0.568,0,1.037,0.086,1.406,0.256c0.367,0.172,0.66,0.416,0.883,0.732c0.221,0.316,0.377,0.699,0.465,1.15
		c0.088,0.449,0.133,0.959,0.133,1.529v5.301h-0.854v-5.301c0-0.393-0.02-0.764-0.059-1.111c-0.037-0.35-0.129-0.652-0.275-0.912
		c-0.145-0.26-0.357-0.467-0.637-0.619c-0.277-0.15-0.658-0.227-1.139-0.227c-0.559,0-1.004,0.117-1.34,0.352
		s-0.592,0.535-0.77,0.902s-0.299,0.779-0.361,1.234c-0.063,0.457-0.096,0.906-0.096,1.35v4.332h-0.854v-8.779h0.854V243.35z"/>
	<path fill="#005EA4" d="M163.216,250.342c0,0.684-0.041,1.33-0.123,1.938s-0.332,1.203-0.75,1.785
		c-0.406,0.57-0.916,0.994-1.529,1.273c-0.615,0.279-1.271,0.418-1.967,0.418c-0.57,0-1.111-0.082-1.625-0.246
		c-0.514-0.166-0.967-0.408-1.359-0.732c-0.393-0.322-0.705-0.715-0.939-1.178s-0.371-0.998-0.408-1.605h0.854
		c0.025,0.457,0.135,0.867,0.324,1.234s0.439,0.678,0.75,0.932s0.666,0.449,1.064,0.59c0.398,0.139,0.82,0.209,1.264,0.209
		c0.557,0,1.082-0.102,1.576-0.305s0.906-0.539,1.234-1.008c0.344-0.506,0.559-1.037,0.646-1.596
		c0.09-0.557,0.133-1.133,0.133-1.729v-1.082h-0.037c-0.393,0.531-0.893,0.949-1.502,1.254c-0.607,0.303-1.246,0.455-1.918,0.455
		c-0.635,0-1.213-0.123-1.738-0.371c-0.525-0.246-0.977-0.582-1.35-1.006s-0.662-0.916-0.865-1.473
		c-0.201-0.557-0.303-1.141-0.303-1.748c0-0.633,0.107-1.227,0.322-1.777s0.516-1.031,0.902-1.443s0.846-0.738,1.379-0.979
		c0.531-0.24,1.119-0.361,1.766-0.361c0.723,0,1.352,0.146,1.891,0.438s1.01,0.715,1.416,1.273h0.037v-1.521h0.855V250.342z
		 M158.903,242.59c-0.508,0-0.969,0.104-1.387,0.313s-0.777,0.488-1.074,0.836c-0.297,0.35-0.529,0.748-0.693,1.197
		s-0.246,0.91-0.246,1.377c0,0.508,0.078,0.992,0.236,1.455c0.158,0.461,0.391,0.871,0.693,1.225
		c0.305,0.355,0.668,0.637,1.094,0.846c0.424,0.209,0.902,0.313,1.434,0.313c0.557,0,1.051-0.104,1.482-0.313
		c0.43-0.209,0.791-0.494,1.082-0.855s0.514-0.779,0.666-1.254s0.229-0.979,0.229-1.51c0-0.508-0.084-0.982-0.248-1.426
		s-0.402-0.826-0.713-1.148c-0.311-0.324-0.68-0.58-1.111-0.77C159.917,242.684,159.435,242.59,158.903,242.59z"/>
	<path fill="#005EA4" d="M170.687,243.35h0.037c0.254-0.482,0.609-0.861,1.064-1.141c0.457-0.277,0.969-0.418,1.539-0.418
		s1.039,0.086,1.406,0.256c0.367,0.172,0.662,0.416,0.883,0.732c0.223,0.316,0.377,0.699,0.467,1.15
		c0.088,0.449,0.133,0.959,0.133,1.529v5.301h-0.855v-5.301c0-0.393-0.02-0.764-0.057-1.111c-0.039-0.35-0.131-0.652-0.275-0.912
		c-0.146-0.26-0.359-0.467-0.637-0.619c-0.279-0.15-0.658-0.227-1.141-0.227c-0.557,0-1.004,0.117-1.34,0.352
		s-0.592,0.535-0.77,0.902c-0.176,0.367-0.297,0.779-0.359,1.234c-0.064,0.457-0.096,0.906-0.096,1.35v4.332h-0.855v-8.779h0.855
		V243.35z"/>
	<path fill="#005EA4" d="M166.681,238.275c0.215,0,0.398,0.076,0.551,0.229s0.229,0.336,0.229,0.551c0,0.217-0.076,0.4-0.229,0.551
		c-0.152,0.152-0.336,0.229-0.551,0.229s-0.398-0.076-0.551-0.229c-0.152-0.15-0.229-0.334-0.229-0.551
		c0-0.215,0.076-0.398,0.229-0.551S166.466,238.275,166.681,238.275z M167.099,250.76h-0.855v-8.779h0.855V250.76z"/>
	<path fill="#005EA4" d="M178.587,246.445c-0.014,0.559,0.066,1.064,0.236,1.521c0.172,0.455,0.416,0.846,0.732,1.168
		s0.693,0.574,1.131,0.75c0.436,0.178,0.908,0.266,1.414,0.266c0.686,0,1.293-0.182,1.824-0.551
		c0.533-0.367,0.957-0.848,1.273-1.443l0.723,0.418c-0.406,0.76-0.943,1.346-1.615,1.758s-1.443,0.617-2.318,0.617
		c-0.646,0-1.232-0.123-1.758-0.371c-0.525-0.246-0.975-0.578-1.348-0.996c-0.375-0.418-0.66-0.906-0.855-1.463
		c-0.197-0.559-0.295-1.146-0.295-1.768c0-0.607,0.102-1.188,0.305-1.738c0.201-0.551,0.49-1.035,0.863-1.453
		c0.375-0.418,0.82-0.752,1.34-0.998c0.52-0.248,1.102-0.371,1.748-0.371c0.658,0,1.25,0.123,1.777,0.371
		c0.525,0.246,0.969,0.582,1.33,1.006c0.359,0.426,0.637,0.92,0.826,1.482c0.189,0.564,0.285,1.162,0.285,1.795H178.587z
		 M185.351,245.648c-0.051-0.406-0.168-0.791-0.352-1.158c-0.184-0.369-0.424-0.695-0.723-0.979
		c-0.297-0.285-0.637-0.51-1.016-0.676c-0.381-0.164-0.799-0.246-1.254-0.246c-0.443,0-0.865,0.082-1.264,0.246
		c-0.398,0.166-0.75,0.387-1.055,0.666c-0.305,0.277-0.555,0.602-0.75,0.969c-0.197,0.367-0.314,0.76-0.352,1.178H185.351z"/>
	<path fill="#005EA4" d="M188.276,246.445c-0.012,0.559,0.066,1.064,0.238,1.521c0.17,0.455,0.414,0.846,0.73,1.168
		s0.695,0.574,1.131,0.75c0.438,0.178,0.91,0.266,1.416,0.266c0.684,0,1.291-0.182,1.824-0.551c0.531-0.367,0.955-0.848,1.273-1.443
		l0.721,0.418c-0.404,0.76-0.943,1.346-1.615,1.758c-0.67,0.412-1.443,0.617-2.316,0.617c-0.646,0-1.232-0.123-1.758-0.371
		c-0.525-0.246-0.977-0.578-1.35-0.996s-0.658-0.906-0.855-1.463c-0.195-0.559-0.293-1.146-0.293-1.768
		c0-0.607,0.1-1.188,0.303-1.738s0.49-1.035,0.865-1.453c0.373-0.418,0.82-0.752,1.34-0.998c0.518-0.248,1.102-0.371,1.748-0.371
		c0.658,0,1.25,0.123,1.775,0.371c0.525,0.246,0.969,0.582,1.33,1.006c0.361,0.426,0.637,0.92,0.826,1.482
		c0.191,0.564,0.285,1.162,0.285,1.795H188.276z M195.04,245.648c-0.051-0.406-0.168-0.791-0.35-1.158
		c-0.186-0.369-0.426-0.695-0.723-0.979c-0.299-0.285-0.637-0.51-1.018-0.676c-0.379-0.164-0.797-0.246-1.254-0.246
		c-0.443,0-0.863,0.082-1.264,0.246c-0.398,0.166-0.75,0.387-1.053,0.666c-0.305,0.277-0.555,0.602-0.752,0.969
		c-0.195,0.367-0.313,0.76-0.352,1.178H195.04z"/>
	<path fill="#005EA4" d="M198.821,243.121h0.039c0.176-0.404,0.42-0.729,0.73-0.969s0.699-0.361,1.168-0.361
		c0.178,0,0.34,0.02,0.484,0.057c0.146,0.039,0.295,0.09,0.447,0.152l-0.455,0.76c-0.102-0.063-0.201-0.107-0.295-0.133
		c-0.096-0.025-0.199-0.037-0.314-0.037c-0.48,0-0.846,0.133-1.092,0.398c-0.248,0.266-0.424,0.59-0.533,0.969
		c-0.107,0.381-0.164,0.783-0.17,1.207s-0.01,0.795-0.01,1.111v4.484h-0.855v-8.779h0.855V243.121z"/>
	<path fill="#005EA4" d="M204.009,238.275c0.215,0,0.398,0.076,0.551,0.229s0.229,0.336,0.229,0.551c0,0.217-0.076,0.4-0.229,0.551
		c-0.152,0.152-0.336,0.229-0.551,0.229s-0.398-0.076-0.551-0.229c-0.152-0.15-0.229-0.334-0.229-0.551
		c0-0.215,0.076-0.398,0.229-0.551S203.794,238.275,204.009,238.275z M204.427,250.76h-0.855v-8.779h0.855V250.76z"/>
	<path fill="#005EA4" d="M208.55,243.35h0.039c0.252-0.482,0.607-0.861,1.063-1.141c0.457-0.277,0.969-0.418,1.539-0.418
		s1.039,0.086,1.406,0.256c0.367,0.172,0.662,0.416,0.883,0.732c0.223,0.316,0.377,0.699,0.467,1.15
		c0.088,0.449,0.133,0.959,0.133,1.529v5.301h-0.855v-5.301c0-0.393-0.02-0.764-0.057-1.111c-0.037-0.35-0.131-0.652-0.275-0.912
		c-0.146-0.26-0.357-0.467-0.637-0.619c-0.279-0.15-0.658-0.227-1.141-0.227c-0.557,0-1.004,0.117-1.338,0.352
		c-0.336,0.234-0.594,0.535-0.77,0.902c-0.178,0.367-0.299,0.779-0.361,1.234c-0.064,0.457-0.096,0.906-0.096,1.35v4.332h-0.855
		v-8.779h0.855V243.35z"/>
	<path fill="#005EA4" d="M224.851,250.342c0,0.684-0.041,1.33-0.123,1.938s-0.332,1.203-0.75,1.785
		c-0.406,0.57-0.916,0.994-1.529,1.273c-0.615,0.279-1.27,0.418-1.967,0.418c-0.57,0-1.111-0.082-1.625-0.246
		c-0.512-0.166-0.965-0.408-1.357-0.732c-0.393-0.322-0.707-0.715-0.941-1.178s-0.369-0.998-0.408-1.605h0.855
		c0.025,0.457,0.133,0.867,0.322,1.234s0.439,0.678,0.75,0.932s0.666,0.449,1.064,0.59c0.398,0.139,0.82,0.209,1.264,0.209
		c0.557,0,1.084-0.102,1.578-0.305c0.492-0.203,0.904-0.539,1.234-1.008c0.342-0.506,0.557-1.037,0.646-1.596
		c0.088-0.557,0.133-1.133,0.133-1.729v-1.082h-0.039c-0.393,0.531-0.893,0.949-1.5,1.254c-0.609,0.303-1.248,0.455-1.92,0.455
		c-0.633,0-1.213-0.123-1.738-0.371c-0.525-0.246-0.975-0.582-1.35-1.006c-0.373-0.424-0.662-0.916-0.863-1.473
		c-0.203-0.557-0.305-1.141-0.305-1.748c0-0.633,0.107-1.227,0.324-1.777c0.215-0.551,0.516-1.031,0.902-1.443
		c0.385-0.412,0.844-0.738,1.377-0.979c0.531-0.24,1.121-0.361,1.768-0.361c0.721,0,1.352,0.146,1.891,0.438
		c0.537,0.291,1.01,0.715,1.414,1.273h0.039v-1.521h0.854V250.342z M220.538,242.59c-0.506,0-0.969,0.104-1.387,0.313
		s-0.775,0.488-1.074,0.836c-0.297,0.35-0.527,0.748-0.693,1.197c-0.164,0.449-0.246,0.91-0.246,1.377
		c0,0.508,0.078,0.992,0.238,1.455c0.158,0.461,0.389,0.871,0.693,1.225c0.303,0.355,0.668,0.637,1.092,0.846
		s0.902,0.313,1.434,0.313c0.559,0,1.053-0.104,1.482-0.313c0.432-0.209,0.791-0.494,1.084-0.855
		c0.291-0.361,0.512-0.779,0.664-1.254s0.229-0.979,0.229-1.51c0-0.508-0.082-0.982-0.248-1.426
		c-0.164-0.443-0.402-0.826-0.711-1.148c-0.311-0.324-0.682-0.58-1.111-0.77C221.552,242.684,221.071,242.59,220.538,242.59z"/>
</g>
<g>
	<path fill="#0B4792" d="M51.625,221.072v-20.318h7.545c3.611,0,6.036,1.4,6.036,5.281c0,1.832-0.593,3.314-2.236,4.15v0.053
		c2.91,0.379,4.15,2.346,4.15,5.174c0,4.258-3.638,5.66-7.356,5.66H51.625z M56.906,208.73h0.593c1.401,0,2.856-0.242,2.856-1.967
		c0-1.859-1.644-1.969-3.072-1.969h-0.377V208.73z M56.906,217.029h0.673c1.563,0,4.204,0.082,4.204-2.156
		c0-2.451-2.614-2.209-4.339-2.209h-0.539V217.029z"/>
	<path fill="#0B4792" d="M74.666,221.072h-4.904v-22.367h4.904V221.072z"/>
	<path fill="#0B4792" d="M82.723,207.248v7.383c0,1.752,0.431,2.992,2.452,2.992s2.452-1.24,2.452-2.992v-7.383h4.904v8.326
		c0,4.555-3.207,5.955-7.356,5.955s-7.356-1.4-7.356-5.955v-8.326H82.723z"/>
	<path fill="#0B4792" d="M109.86,214.982H99.54c0,1.994,1.051,3.072,3.072,3.072c1.051,0,1.805-0.352,2.344-1.268h4.716
		c-0.782,3.26-3.88,4.742-7.033,4.742c-4.581,0-8.003-2.586-8.003-7.355c0-4.609,3.153-7.385,7.653-7.385
		c4.797,0,7.572,2.965,7.572,7.682V214.982z M105.306,212.152c-0.242-1.32-1.455-2.184-2.775-2.184c-1.428,0-2.614,0.756-2.91,2.184
		H105.306z"/>
	<path fill="#0A7AC0" d="M132.605,205.982c-0.97-0.809-2.21-1.348-3.503-1.348c-0.97,0-2.264,0.564-2.264,1.697
		c0,1.186,1.428,1.643,2.345,1.939l1.347,0.404c2.83,0.836,5.012,2.264,5.012,5.551c0,2.021-0.485,4.096-2.102,5.471
		c-1.59,1.348-3.718,1.914-5.767,1.914c-2.56,0-5.066-0.863-7.141-2.318l2.263-4.258c1.321,1.16,2.883,2.102,4.689,2.102
		c1.24,0,2.56-0.619,2.56-2.047c0-1.482-2.075-1.994-3.207-2.318c-3.314-0.943-5.497-1.805-5.497-5.738
		c0-4.123,2.938-6.818,7.006-6.818c2.048,0,4.554,0.646,6.359,1.67L132.605,205.982z"/>
	<path fill="#0A7AC0" d="M153.059,221.072h-4.904v-1.537h-0.053c-0.863,1.375-2.561,1.994-4.178,1.994
		c-4.096,0-6.979-3.422-6.979-7.383s2.83-7.357,6.926-7.357c1.59,0,3.26,0.594,4.283,1.807v-1.348h4.904V221.072z M142.011,214.174
		c0,1.752,1.159,3.098,3.153,3.098s3.152-1.346,3.152-3.098c0-1.697-1.158-3.127-3.152-3.127S142.011,212.477,142.011,214.174z"/>
	<path fill="#0A7AC0" d="M161.064,208.811h0.054c0.89-1.373,2.56-2.021,4.177-2.021c4.123,0,6.979,3.449,6.979,7.412
		c0,3.986-2.828,7.328-6.925,7.328c-1.59,0-3.233-0.564-4.284-1.777v8.219h-4.904v-20.723h4.904V208.811z M160.902,214.174
		c0,1.752,1.158,3.098,3.152,3.098s3.153-1.346,3.153-3.098c0-1.697-1.159-3.127-3.153-3.127S160.902,212.477,160.902,214.174z"/>
	<path fill="#0A7AC0" d="M179.443,208.811h0.055c0.889-1.373,2.559-2.021,4.176-2.021c4.123,0,6.98,3.449,6.98,7.412
		c0,3.986-2.83,7.328-6.926,7.328c-1.59,0-3.234-0.564-4.285-1.777v8.219h-4.904v-20.723h4.904V208.811z M179.281,214.174
		c0,1.752,1.16,3.098,3.154,3.098c1.992,0,3.152-1.346,3.152-3.098c0-1.697-1.16-3.127-3.152-3.127
		C180.441,211.047,179.281,212.477,179.281,214.174z"/>
	<path fill="#0A7AC0" d="M197.984,198.705V209h0.055c1.131-1.51,2.506-2.211,4.418-2.211c3.504,0,5.201,2.318,5.201,5.822v8.461
		h-4.904v-7.088c0-1.617-0.242-3.287-2.209-3.287c-1.941,0-2.561,1.67-2.561,3.287v7.088h-4.904v-22.367H197.984z"/>
	<path fill="#0A7AC0" d="M216.094,201.939c0,1.51-1.238,2.748-2.748,2.748s-2.748-1.238-2.748-2.748s1.238-2.748,2.748-2.748
		S216.094,200.43,216.094,201.939z M215.799,221.072h-4.904v-13.824h4.904V221.072z"/>
	<path fill="#0A7AC0" d="M223.938,209.512h0.053c0.943-1.697,2.561-2.453,4.473-2.453h0.943v4.717
		c-0.674-0.377-1.32-0.459-2.074-0.459c-2.721,0-3.395,1.807-3.395,4.178v5.578h-4.904v-13.824h4.904V209.512z"/>
	<path fill="#0A7AC0" d="M245.441,214.982h-10.322c0,1.994,1.051,3.072,3.072,3.072c1.051,0,1.807-0.352,2.344-1.268h4.717
		c-0.781,3.26-3.881,4.742-7.033,4.742c-4.582,0-8.004-2.586-8.004-7.355c0-4.609,3.154-7.385,7.654-7.385
		c4.795,0,7.572,2.965,7.572,7.682V214.982z M240.887,212.152c-0.242-1.32-1.455-2.184-2.775-2.184c-1.428,0-2.615,0.756-2.91,2.184
		H240.887z"/>
</g>
</svg>
