<?xml version="1.0" encoding="utf-8"?>
<!-- Generator: Adobe Illustrator 16.0.0, SVG Export Plug-In . SVG Version: 6.00 Build 0)  -->
<!DOCTYPE svg PUBLIC "-//W3C//DTD SVG 1.1//EN" "http://www.w3.org/Graphics/SVG/1.1/DTD/svg11.dtd">
<svg version="1.1" id="Layer_1" xmlns="http://www.w3.org/2000/svg" xmlns:xlink="http://www.w3.org/1999/xlink" x="0px" y="0px"
	 width="316.479px" height="95.701px" viewBox="0 0 316.479 95.701" enable-background="new 0 0 316.479 95.701"
	 xml:space="preserve">
<g>
	<g>
		<path fill="#FFFFFF" d="M6.257,90.951V75.367h2.431v13.534h5.356v2.042H6.257V90.951z"/>
		<path fill="#FFFFFF" d="M20.739,91.186c-3.334,0-5.011-1.356-5.011-3.634c0-3.228,3.444-3.809,6.95-4.005v-0.735
			c0-1.457-0.966-1.977-2.456-1.977c-1.094,0-2.429,0.346-3.203,0.709l-0.602-1.611c0.926-0.409,2.495-0.818,4.044-0.818
			c2.776,0,4.454,1.077,4.454,3.932v7.306C24.075,90.822,22.375,91.186,20.739,91.186z M22.676,85.119
			c-2.367,0.131-4.735,0.324-4.735,2.386c0,1.23,0.947,1.98,2.735,1.98c0.75,0,1.638-0.132,2-0.305V85.119z"/>
		<path fill="#FFFFFF" d="M46.808,90.951v-7.856c0-1.339-0.88-2.086-2.214-2.086c-0.909,0-1.657,0.279-2.13,0.77v9.169h-2.37V82.88
			c0-1.166-0.922-1.871-2.367-1.871c-0.794,0-1.48,0.132-1.979,0.342v9.597h-2.344V79.935c1.141-0.476,2.605-0.82,4.174-0.82
			c1.827,0,3.057,0.575,3.706,1.253c0.73-0.625,2.129-1.253,3.85-1.253c2.474,0,4.022,1.436,4.022,3.746v8.087h-2.346V90.951z"/>
		<path fill="#FFFFFF" d="M61.625,85.097l-7.705,1.075c0.234,2.087,1.592,3.144,3.552,3.144c1.16,0,2.408-0.279,3.207-0.713
			l0.688,1.766c-0.906,0.477-2.453,0.82-4.046,0.82c-3.66,0-5.704-2.348-5.704-6.048c0-3.551,1.98-6.021,5.229-6.021
			c3.013,0,4.799,1.979,4.799,5.098C61.645,84.496,61.645,84.797,61.625,85.097z M56.802,80.835c-1.808,0-2.991,1.377-3.033,3.785
			l5.616-0.773C59.36,81.827,58.353,80.835,56.802,80.835z"/>
		<path fill="#FFFFFF" d="M61.801,95.726v-1.958c1.358-0.429,2.583-1.636,2.583-4.154V79.35h2.367v10.264
			C66.749,93.705,64.426,95.276,61.801,95.726z M65.566,77.241c-0.774,0-1.397-0.604-1.397-1.334c0-0.735,0.623-1.34,1.397-1.34
			c0.775,0,1.399,0.604,1.399,1.34C66.965,76.638,66.341,77.241,65.566,77.241z"/>
		<path fill="#FFFFFF" d="M74.374,91.186c-3.294,0-5.101-2.603-5.101-6.048c0-3.439,1.807-6.023,5.101-6.023
			c3.288,0,5.1,2.584,5.1,6.023C79.474,88.583,77.662,91.186,74.374,91.186z M74.374,80.985c-1.83,0-2.735,1.636-2.735,4.134
			c0,2.497,0.908,4.155,2.735,4.155c1.829,0,2.732-1.658,2.732-4.155C77.104,82.619,76.199,80.985,74.374,80.985z"/>
		<path fill="#FFFFFF" d="M87.291,81.155c-0.347-0.084-0.755-0.129-1.187-0.129c-0.661,0-1.374,0.114-1.827,0.303v9.626h-2.347
			V79.938c1.122-0.472,2.774-0.819,4.501-0.819c0.514,0,0.964,0.026,1.31,0.084L87.291,81.155z"/>
		<path fill="#FFFFFF" d="M100.765,75.907c-1.333,0-2.297,0.563-2.297,2.005v1.438h2.408v1.765h-2.408v9.837h-2.304v-9.837h-1.526
			V79.35h1.526v-1.438c0-2.673,1.806-3.896,4.194-3.896c0.233,0,0.561,0.023,0.732,0.044v1.851h-0.325V75.907z"/>
		<path fill="#FFFFFF" d="M107.309,91.186c-3.292,0-5.101-2.603-5.101-6.048c0-3.439,1.809-6.023,5.101-6.023
			c3.292,0,5.101,2.584,5.101,6.023C112.41,88.583,110.6,91.186,107.309,91.186z M107.309,80.985c-1.831,0-2.733,1.636-2.733,4.134
			c0,2.497,0.904,4.155,2.733,4.155c1.829,0,2.731-1.658,2.731-4.155C110.04,82.619,109.142,80.985,107.309,80.985z"/>
		<path fill="#FFFFFF" d="M120.226,81.155c-0.345-0.084-0.753-0.129-1.183-0.129c-0.667,0-1.378,0.114-1.83,0.303v9.626h-2.346
			V79.938c1.118-0.472,2.775-0.819,4.499-0.819c0.515,0,0.967,0.026,1.313,0.084L120.226,81.155z"/>
		<path fill="#FFFFFF" d="M136.094,90.951v-7.856c0-1.339-0.886-2.086-2.217-2.086c-0.905,0-1.661,0.279-2.133,0.77v9.169h-2.368
			V82.88c0-1.166-0.922-1.871-2.366-1.871c-0.797,0-1.485,0.132-1.98,0.342v9.597h-2.346V79.935c1.142-0.476,2.605-0.82,4.173-0.82
			c1.832,0,3.058,0.575,3.705,1.253c0.73-0.625,2.129-1.253,3.85-1.253c2.471,0,4.02,1.436,4.02,3.746v8.087h-2.338V90.951z"/>
		<path fill="#FFFFFF" d="M145.784,91.186c-3.335,0-5.013-1.356-5.013-3.634c0-3.228,3.442-3.809,6.95-4.005v-0.735
			c0-1.457-0.969-1.977-2.455-1.977c-1.096,0-2.43,0.346-3.207,0.709l-0.599-1.611c0.927-0.409,2.495-0.818,4.041-0.818
			c2.778,0,4.458,1.077,4.458,3.932v7.306C149.121,90.822,147.419,91.186,145.784,91.186z M147.721,85.119
			c-2.366,0.131-4.734,0.324-4.734,2.386c0,1.23,0.948,1.98,2.733,1.98c0.752,0,1.636-0.132,2-0.305V85.119z"/>
		<path fill="#FFFFFF" d="M163.676,91.186c-3.612,0-5.661-2.258-5.661-5.936c0-3.552,1.898-6.005,5.402-6.005
			c0.712,0,1.489,0.153,1.866,0.282v-5.465h2.369v16.306C166.887,90.797,165.311,91.186,163.676,91.186z M165.287,81.31
			c-0.304-0.129-1.032-0.256-1.655-0.256c-2.131,0-3.252,1.762-3.252,4.196c0,2.534,1.142,4.065,3.252,4.065
			c0.623,0,1.372-0.15,1.655-0.305V81.31z"/>
		<path fill="#FFFFFF" d="M180.123,85.097l-7.706,1.075c0.232,2.087,1.594,3.144,3.551,3.144c1.16,0,2.41-0.279,3.203-0.713
			l0.688,1.766c-0.904,0.477-2.451,0.82-4.045,0.82c-3.657,0-5.702-2.348-5.702-6.048c0-3.551,1.98-6.021,5.23-6.021
			c3.009,0,4.797,1.979,4.797,5.098C180.145,84.496,180.145,84.797,180.123,85.097z M175.3,80.835c-1.809,0-2.99,1.377-3.037,3.785
			l5.617-0.773C177.863,81.827,176.846,80.835,175.3,80.835z"/>
		<path fill="#FFFFFF" d="M192.435,91.079c-0.709,0-1.504-0.147-1.892-0.279v4.778H188.2V79.935c0.819-0.432,2.387-0.815,3.98-0.815
			c3.616,0,5.643,2.259,5.643,5.928C197.819,88.603,195.944,91.079,192.435,91.079z M192.219,80.967
			c-0.646,0-1.351,0.147-1.679,0.302v7.73c0.303,0.129,1.056,0.26,1.679,0.26c2.128,0,3.25-1.77,3.25-4.192
			C195.472,82.533,194.331,80.967,192.219,80.967z"/>
		<path fill="#FFFFFF" d="M209.873,85.097l-7.702,1.075c0.233,2.087,1.596,3.144,3.552,3.144c1.168,0,2.409-0.279,3.207-0.713
			l0.688,1.766c-0.909,0.477-2.457,0.82-4.05,0.82c-3.656,0-5.702-2.348-5.702-6.048c0-3.551,1.98-6.021,5.23-6.021
			c3.013,0,4.797,1.979,4.797,5.098C209.897,84.496,209.897,84.797,209.873,85.097z M205.054,80.835
			c-1.807,0-2.991,1.377-3.033,3.785l5.616-0.773C207.613,81.827,206.6,80.835,205.054,80.835z"/>
		<path fill="#FFFFFF" d="M217.583,91.186c-3.613,0-5.658-2.258-5.658-5.936c0-3.552,1.891-6.005,5.399-6.005
			c0.711,0,1.489,0.153,1.867,0.282v-5.465h2.372v16.306C220.792,90.797,219.219,91.186,217.583,91.186z M219.195,81.31
			c-0.302-0.129-1.029-0.256-1.654-0.256c-2.128,0-3.25,1.762-3.25,4.196c0,2.534,1.142,4.065,3.25,4.065
			c0.625,0,1.372-0.15,1.654-0.305V81.31z"/>
		<path fill="#FFFFFF" d="M225.703,77.241c-0.773,0-1.397-0.604-1.397-1.334c0-0.735,0.624-1.34,1.397-1.34s1.399,0.604,1.399,1.34
			C227.102,76.638,226.476,77.241,225.703,77.241z M224.522,90.951V79.346h2.37v11.605H224.522z"/>
		<path fill="#FFFFFF" d="M235.195,81.155c-0.345-0.084-0.747-0.129-1.185-0.129c-0.66,0-1.369,0.114-1.829,0.303v9.626h-2.345
			V79.938c1.118-0.472,2.774-0.819,4.499-0.819c0.515,0,0.964,0.026,1.314,0.084L235.195,81.155z"/>
		<path fill="#FFFFFF" d="M247.921,91.186c-2.584,0-5.099-1.852-5.099-6.048c0-4.189,2.515-6.023,5.099-6.023
			c1.266,0,2.259,0.322,2.975,0.804l-0.773,1.69c-0.479-0.344-1.187-0.556-1.899-0.556c-1.547,0-2.971,1.224-2.971,4.065
			c0,2.84,1.466,4.088,2.971,4.088c0.713,0,1.421-0.215,1.899-0.562l0.773,1.746C250.159,90.883,249.186,91.186,247.921,91.186z"/>
		<path fill="#FFFFFF" d="M257.351,91.186c-3.292,0-5.098-2.603-5.098-6.048c0-3.439,1.806-6.023,5.098-6.023
			s5.104,2.584,5.104,6.023C262.45,88.583,260.639,91.186,257.351,91.186z M257.351,80.985c-1.826,0-2.73,1.636-2.73,4.134
			c0,2.497,0.909,4.155,2.73,4.155c1.831,0,2.732-1.658,2.732-4.155C260.084,82.619,259.178,80.985,257.351,80.985z"/>
		<path fill="#FFFFFF" d="M278.314,90.951v-7.856c0-1.339-0.878-2.086-2.213-2.086c-0.905,0-1.657,0.279-2.129,0.77v9.169h-2.37
			V82.88c0-1.166-0.922-1.871-2.367-1.871c-0.798,0-1.49,0.132-1.979,0.342v9.597h-2.345V79.935c1.142-0.476,2.603-0.82,4.177-0.82
			c1.83,0,3.054,0.575,3.699,1.253c0.735-0.625,2.126-1.253,3.846-1.253c2.472,0,4.02,1.436,4.02,3.746v8.087h-2.347v0.004H278.314
			L278.314,90.951z"/>
		<path fill="#FFFFFF" d="M284.802,77.241c-0.771,0-1.396-0.604-1.396-1.334c0-0.735,0.626-1.34,1.396-1.34
			c0.773,0,1.404,0.604,1.404,1.34C286.206,76.638,285.575,77.241,284.802,77.241z M283.617,90.951V79.346h2.367v11.605H283.617z"/>
		<path fill="#FFFFFF" d="M294.167,91.186c-3.619,0-5.659-2.258-5.659-5.936c0-3.552,1.896-6.005,5.399-6.005
			c0.712,0,1.484,0.153,1.869,0.282v-5.465h2.366v16.306C297.37,90.797,295.802,91.186,294.167,91.186z M295.782,81.31
			c-0.302-0.129-1.033-0.256-1.657-0.256c-2.129,0-3.246,1.762-3.246,4.196c0,2.534,1.14,4.065,3.246,4.065
			c0.624,0,1.376-0.15,1.657-0.305V81.31z"/>
		<path fill="#FFFFFF" d="M305.484,91.186c-3.33,0-5.009-1.356-5.009-3.634c0-3.228,3.442-3.809,6.953-4.005v-0.735
			c0-1.457-0.972-1.977-2.462-1.977c-1.089,0-2.426,0.346-3.208,0.709l-0.598-1.611c0.926-0.409,2.493-0.818,4.04-0.818
			c2.782,0,4.459,1.077,4.459,3.932v7.306C308.831,90.822,307.126,91.186,305.484,91.186z M307.431,85.119
			c-2.375,0.131-4.737,0.324-4.737,2.386c0,1.23,0.948,1.98,2.732,1.98c0.747,0,1.636-0.132,2.005-0.305V85.119L307.431,85.119z"/>
	</g>
	<g>
		<path opacity="0.4" fill="#333333" enable-background="new    " d="M294.673,18.902c-5.754,0-10.833,1.066-13.992,1.927
			l4.37-9.851c0.47-1.054,0.373-2.263-0.255-3.229c-0.628-0.969-1.692-1.547-2.849-1.547h-15.804c-1.454,0-2.745,0.926-3.217,2.307
			l-2.982,8.808l-2.981-8.81c-0.469-1.379-1.761-2.305-3.214-2.305h-15.807c-1.157,0-2.22,0.578-2.845,1.545
			c-0.63,0.968-0.728,2.174-0.259,3.229l5.824,13.122c-0.303-0.53-0.756-0.987-1.332-1.296c-3.923-2.097-8.627-3.161-13.982-3.161
			c-8.868,0-15.109,3.606-17.308,9.809c-4.474-5.047-10.065-9.809-17.884-9.809c-8.038,0-14.489,3.713-18.115,10.179V6.476
			c0-1.872-1.521-3.396-3.396-3.396h-11.674c-1.874,0-3.398,1.524-3.398,3.396v13.723c-0.491-0.04-0.966-0.058-1.417-0.058
			c-8.309,0-14.686,3.463-18.21,9.688v-5.944c0-1.872-1.524-3.396-3.397-3.396h-0.45c2.693-1.685,4.479-4.572,4.479-7.858
			c0-5.227-4.443-9.482-9.905-9.482c-2.883,0-5.547,1.238-7.372,3.231c-0.026-0.923-0.279,0.51-0.898-0.087
			c-0.612-0.588-1.584-3.213-2.497-3.213h-11.672c-1.874,0-3.397,1.523-3.397,3.396v13.722c-0.493-0.039-0.972-0.058-1.42-0.058
			c-8.872,0-15.444,3.82-18.809,10.837c-3.664-3.317-9.853-11.337-18.496-11.337c-6.057,0-11.338,2.093-15.184,5.96
			c-0.533-11.783-9.585-19.05-23.889-19.05c-6.456,0-12.306,1.049-16.912,3.033c-1.247,0.538-2.053,1.763-2.053,3.119v49.33
			c0,1.869,1.523,3.394,3.396,3.394h11.816c1.873,0,3.396-1.521,3.396-3.394V46.592c0.216,0.006,0.43,0.008,0.639,0.008
			c7.165,0,13.03-1.829,17.179-5.32c-0.028,0.542-0.043,1.088-0.043,1.636c0,14.403,8.869,23.354,23.143,23.354
			c6.058,0,12.333-1.184,16.378-3.082c1.59-0.75,3.098-3.438,2.476-5.082l-4.001-7.819c-0.339-0.901-1.045-1.617-1.941-1.969
			c-0.055-0.022-0.111-0.043-0.168-0.059l2.15-0.284c1.734,11.653,9.892,18.303,22.555,18.303c6.428,0,12.725-1.207,16.437-3.155
			c0.057-0.029,0.099-0.076,0.154-0.111c0.425,1.394,1.707,2.414,3.234,2.414h11.677c1.873,0,3.397-1.521,3.397-3.394v-5.753
			c3.693,6.496,10.545,9.997,19.835,9.997c6.425,0,12.721-1.208,16.437-3.153c1.124-0.587,1.822-1.743,1.822-3.008v-4.05
			c3.626,6.487,10.079,10.211,18.117,10.211c6.846,0,12.483-2.711,16.235-7.385c-0.628,1.622,0.085,3.479,1.652,4.263
			c2.881,1.439,8.397,3.122,14.468,3.122c12.275,0,19.601-5.846,19.601-15.64c0-10.238-8.601-13.241-13.228-14.854l-0.302-0.104
			c-0.932-0.325-1.552-0.574-1.953-0.748c1.587-0.083,4.728,0.95,5.908,1.642c0.827,0.496,1.883,0.597,2.764,0.309
			c0.924-0.296,1.676-0.972,2.067-1.86l3.469-7.856c0.348-0.789,0.363-1.65,0.108-2.423l8.217,18.512v19.809
			c0,1.876,1.522,3.398,3.397,3.398h14.774c1.869,0,3.4-1.522,3.4-3.398V43.252l5.584-12.601l4.227,5.069
			c0.292,0.811,1.503-0.39,2.263,0c-4.905,2.866-10.36,9.138-10.36,14.79c0,7.712,3.988,16.907,22.964,16.907
			c6.631,0,13.743-1.335,17.697-3.323c1.157-0.577,1.871-1.742,1.871-3.033v-23.4C314.981,25.037,308.341,18.902,294.673,18.902z
			 M211.406,44.794c2.834,2.609,6.499,3.926,9.11,4.866c0.794,0.283,1.361,0.511,1.774,0.692c-0.045,0.004-0.09,0.004-0.132,0.004
			c-1.949,0-5.862-1.118-7.142-1.903c-0.534-0.33-1.149-0.502-1.773-0.502c-0.353,0-0.702,0.051-1.043,0.162
			c-0.493,0.157-0.937,0.429-1.302,0.777C211.155,47.582,211.329,46.211,211.406,44.794z M190.157,50.142
			c-2.336,0-2.824-4.002-2.824-7.362c0-3.326,0.488-7.289,2.824-7.289c2.346,0,2.835,3.965,2.835,7.289
			C192.992,46.139,192.503,50.142,190.157,50.142z M153.572,35.634v14.799c0,0-0.002,0-0.004,0c-1.051,0-4.248,0-4.248-7.508
			c0-3.327,0.713-7.292,4.108-7.292C153.475,35.632,153.524,35.632,153.572,35.634z M119.379,20.493h-0.505
			c-0.568,0-1.096,0.153-1.569,0.402v-2.053C117.903,19.489,118.617,20.022,119.379,20.493z M98.833,35.634v14.799
			c-1.051,0-4.246,0-4.246-7.508c0-3.327,0.713-7.292,4.105-7.292C98.74,35.632,98.787,35.632,98.833,35.634z M62.515,50.426
			c-0.651,0-1.571-0.051-2.493-0.294l11.295-1.479C68.904,49.749,65.587,50.426,62.515,50.426z M59.83,34.639
			c1.026,0,1.707,0.344,2.132,1.114l-5.288,0.668C57.515,34.856,58.825,34.639,59.83,34.639z M26.344,26.717
			c0,1.987-0.431,4.106-5.593,4.106c-0.025,0-0.048,0-0.073,0v-8.48c0.166-0.009,0.332-0.015,0.499-0.015
			C25.962,22.328,26.344,24.229,26.344,26.717z M294.749,49.315v1.497c-1.393-0.035-2.218-0.367-2.227-0.837
			C292.536,49.958,292.843,49.597,294.749,49.315z"/>
		<path fill="#FFFFFF" d="M76.033,48.674c1.732,11.65,9.221,16.189,21.883,16.189c6.428,0,12.724-1.206,16.435-3.152
			c0.059-0.034,0.101-0.076,0.156-0.109c0.425,1.394,1.707,2.412,3.235,2.412h11.677c1.873,0,3.396-1.521,3.396-3.397v-5.749
			c3.692,6.496,10.545,9.992,19.835,9.992c6.424,0,12.721-1.206,16.437-3.15c1.124-0.589,1.822-1.739,1.822-3.009v-4.045
			c3.627,6.483,10.08,10.204,18.117,10.204c6.847,0,12.483-2.707,16.235-7.382c-0.631,1.621,0.085,3.479,1.652,4.26
			c2.881,1.44,8.396,3.122,14.467,3.122c12.274,0,19.602-5.841,19.602-15.637c0-10.24-8.6-13.241-13.228-14.855 M227.756,34.37
			c4.644,2.772,4.802,2.449,6.444,1.499c0.48-0.28,1.493-1.016,2.035-2.257l3.469-7.854c0.348-0.791,0.365-1.652,0.113-2.423
			l8.213,18.51v19.812c0,1.87,1.52,3.395,3.397,3.395H266.2c1.871,0,3.397-1.521,3.397-3.395V41.844l5.589-12.599l1.862,5.195
			c0.29,0.811,0.886,1.486,1.648,1.876c-4.907,2.865-7.387,7.136-7.387,12.786c0,7.715,3.985,16.907,22.966,16.907
			c6.625,0,13.74-1.332,17.696-3.316c1.156-0.579,1.871-1.747,1.871-3.041V36.249c0-12.625-6.642-18.76-20.309-18.76
			c-5.759,0-10.835,1.066-13.995,1.926l4.371-9.851c0.472-1.054,0.374-2.263-0.254-3.228c-0.631-0.968-1.691-1.547-2.85-1.547
			h-15.805c-1.45,0-2.747,0.927-3.217,2.308l-2.98,8.808l-2.982-8.808c-0.468-1.381-1.764-2.306-3.217-2.306h-15.806
			c-1.155,0-2.217,0.579-2.843,1.545c-0.631,0.968-0.731,2.174-0.26,3.228l5.824,13.123c-0.305-0.532-0.754-0.987-1.333-1.293
			c-3.922-2.099-8.625-3.162-13.981-3.162c-8.867,0-15.108,3.605-17.31,9.804c-3.697-6.275-10.065-9.804-17.879-9.804
			c-8.038,0-14.491,3.71-18.117,10.178V5.063c0.008-1.874-1.515-3.397-3.392-3.397h-11.672c-1.872,0-3.397,1.523-3.397,3.397v13.72
			c-0.491-0.04-0.965-0.057-1.418-0.057c-8.308,0-14.685,3.462-18.21,9.688v-5.942c0-1.874-1.525-3.397-3.397-3.397h-0.449
			c2.693-1.684,4.478-4.571,4.478-7.857c0-5.228-4.442-9.482-9.904-9.482c-2.882,0-5.546,1.238-7.373,3.23
			c-0.05-1.829-1.553-3.301-3.392-3.301h-11.673c-1.873,0-3.396,1.523-3.396,3.397v13.72c-0.494-0.038-0.972-0.057-1.42-0.057
			c-8.872,0-15.444,3.82-18.81,10.837c-3.139-7.157-9.853-11.337-18.497-11.337c-6.057,0-11.336,2.094-15.183,5.96
			c-0.533-11.785-9.586-19.05-23.89-19.05c-6.456,0-12.305,1.05-16.912,3.034C1.75,8.707,0.943,9.935,0.943,11.289v49.327
			c0,1.874,1.524,3.401,3.397,3.401h11.817c1.872,0,3.396-1.522,3.396-3.401V45.182c0.216,0.007,0.429,0.009,0.638,0.009
			c7.166,0,13.031-1.83,17.18-5.321c-0.028,0.543-0.043,1.089-0.043,1.638c0,14.404,8.865,23.355,23.144,23.355
			c6.056,0,12.332-1.18,16.377-3.083c1.591-0.749,2.895-3.463,2.275-5.108l-3.085-7.992"/>
		<g>
			<path fill="#262122" d="M20.187,41.792c-1.415,0-3.114-0.141-4.034-0.287v19.11H4.336V11.289
				c4.102-1.769,9.412-2.758,15.568-2.758c13.305,0,20.521,6.579,20.521,16.77C40.426,34.785,33.702,41.792,20.187,41.792z
				 M20.045,17.518c-1.488,0-2.972,0.282-3.896,0.566v14.433c0.779,0.142,2.125,0.289,3.469,0.289c6.016,0,8.99-2.692,8.99-7.504
				C28.608,19.995,25.705,17.518,20.045,17.518z"/>
			<path fill="#262122" d="M75.893,43.065l-23.779,3.112c0.922,4.179,4.529,6.226,9.27,6.226c3.824,0,7.925-0.919,10.757-2.338
				l3.255,8.635c-3.467,1.631-9.199,2.76-14.93,2.76c-13.232,0-19.747-8.633-19.747-19.956c0-11.677,6.794-19.883,18.258-19.883
				c11.109,0,17.056,7.431,17.056,17.903C76.033,40.727,76.033,41.858,75.893,43.065z M58.699,29.829
				c-4.107,0-7.291,2.834-7.36,9.131l13.443-1.698C64.784,32.45,62.448,29.829,58.699,29.829z"/>
			<path fill="#262122" d="M97.917,61.466c-12.668,0-19.529-7.078-19.529-19.814c0-11.821,6.086-19.529,17.899-19.529
				c1.699,0,3.753,0.353,4.814,0.707V5.063h11.673v53.639C109.803,60.26,104.14,61.466,97.917,61.466z M101.099,31.386
				c-0.636-0.28-2.195-0.563-3.537-0.563c-4.956,0-7.502,4.319-7.502,10.687c0,7.146,2.762,10.901,7.641,10.901
				c1.275,0,2.764-0.215,3.396-0.502L101.099,31.386L101.099,31.386z"/>
			<path fill="#262122" d="M123.541,17.232c-3.537,0-6.44-2.688-6.44-6.014c0-3.328,2.905-6.085,6.44-6.085
				c3.539,0,6.511,2.757,6.511,6.085C130.052,14.546,127.08,17.232,123.541,17.232z M117.742,60.616V22.473h11.677v38.143H117.742
				L117.742,60.616z"/>
			<path fill="#262122" d="M152.651,61.466c-12.667,0-19.532-7.078-19.532-19.814c0-11.821,6.085-19.529,17.908-19.529
				c1.695,0,3.747,0.353,4.812,0.707V5.063h11.672v53.639C164.538,60.26,158.876,61.466,152.651,61.466z M155.837,31.386
				c-0.641-0.28-2.196-0.563-3.539-0.563c-4.956,0-7.504,4.319-7.504,10.687c0,7.146,2.76,10.901,7.643,10.901
				c1.274,0,2.762-0.215,3.401-0.502V31.386z"/>
			<path fill="#262122" d="M189.027,61.466c-11.389,0-17.902-8.561-17.902-19.956c0-11.394,6.514-19.885,17.902-19.885
				c11.392,0,17.905,8.491,17.905,19.885C206.932,52.905,200.423,61.466,189.027,61.466z M189.027,30.68
				c-4.104,0-6.224,3.68-6.224,10.684c0,7.009,2.118,10.759,6.224,10.759c4.104,0,6.229-3.759,6.229-10.759
				C195.256,34.36,193.135,30.68,189.027,30.68z"/>
			<path fill="#262122" d="M221.382,61.466c-5.097,0-10.115-1.348-12.95-2.764l3.679-8.771c1.845,1.134,6.371,2.402,8.919,2.402
				c2.688,0,4.388-1.269,4.388-3.181c0-2.194-2.123-3.11-4.884-4.104c-4.528-1.627-11.111-3.962-11.111-11.75
				c0-7.146,5.454-11.675,14.799-11.675c5.234,0,9.338,1.132,12.385,2.762l-3.47,7.854c-1.562-0.919-4.954-2.123-7.357-2.123
				c-2.756,0-4.389,1.272-4.389,3.114c0,2.334,2.124,3.259,4.959,4.244c4.665,1.631,11.248,3.754,11.248,11.75
				C237.586,56.721,232.212,61.466,221.382,61.466z"/>
			<path fill="#E02F34" d="M266.2,41.121v20.532h-14.772V41.121L236.808,8.184h15.806l6.127,18.096h0.14l6.127-18.096h15.804
				L266.2,41.121z"/>
			<path fill="#E02F34" d="M294.28,62.612c-13.147,0-19.568-4.724-19.568-13.514c0-10.265,10.328-12.925,22.302-13.663v-1.035
				c0-2.14-1.628-3.474-5.24-3.474c-3.915,0-8.492,1.179-11.528,2.362l-3.389-9.453c3.685-1.403,10.041-2.954,16.688-2.954
				c11.597,0,16.91,4.432,16.91,15.366v23.404C307.352,61.209,301.003,62.612,294.28,62.612z M297.013,44.222
				c-5.761,0.219-9.015,1.037-9.015,4.508c0,2.733,2.446,4.063,5.836,4.063c1.256,0,2.583-0.079,3.171-0.298v-8.274H297.013z"/>
		</g>
	</g>
</g>
</svg>
