<?xml version="1.0" encoding="utf-8"?>
<!-- Generator: Adobe Illustrator 16.0.0, SVG Export Plug-In . SVG Version: 6.00 Build 0)  -->
<!DOCTYPE svg PUBLIC "-//W3C//DTD SVG 1.1//EN" "http://www.w3.org/Graphics/SVG/1.1/DTD/svg11.dtd">
<svg version="1.1" id="Capa_1" xmlns="http://www.w3.org/2000/svg" xmlns:xlink="http://www.w3.org/1999/xlink" x="0px" y="0px"
	 width="594px" height="352px" viewBox="0 0 594 352" enable-background="new 0 0 594 352" xml:space="preserve">
<rect x="694.353" y="-2.996" fill="#0B1A54" width="594" height="354.996"/>
<g>
	<g>
		<g>
			<polygon fill="#E90C70" points="789.997,211.125 801.31,196.776 821.65,196.776 821.65,170.093 836,151.898 836,211.125 			"/>
		</g>
		<g>
			<path fill="#E90C70" d="M759.673,134.797h74.354l-74.354,94.26V134.797z M774.042,188.264l30.837-39.098h-30.837V188.264z"/>
		</g>
	</g>
	<g>
		<g>
			<path fill="#FFFFFF" d="M863.437,134.797h19.072c21.587,0,31.358,7.438,31.358,25.438c0,19.896-12.82,25.996-28.985,25.996
				h-6.359v24.98h-15.086V134.797z M878.522,173.246h5.281c7.543,0,14.334-2.412,14.334-13.654c0-8.73-6.574-11.748-14.334-11.748
				h-5.281V173.246z"/>
			<path fill="#FFFFFF" d="M947.298,154.418c16.485,0,29.098,10.854,29.098,28.768c0,15.594-10.67,28.025-29.098,28.025
				c-18.32,0-28.992-12.432-28.992-28.025C918.306,165.271,930.916,154.418,947.298,154.418z M947.299,199.139
				c10.392,0,13.112-9.074,13.112-17.557c0-7.793-4.234-15.088-13.112-15.088c-8.772,0-13.008,7.494-13.008,15.088
				C934.291,189.965,937.011,199.139,947.299,199.139z"/>
			<path fill="#FFFFFF" d="M1031.962,170.834h-6.438v-13.572h6.438v-9.502l14.443-6.156v15.658h12.82v13.572h-12.82v19.447
				c0,4.742,1.292,9.16,6.791,9.16c2.582,0,4.483-0.775,5.987-1.742v13.391c-3.018,0.863-5.345,1.414-9.655,1.414
				c-11.318,0-17.566-7.004-17.566-17.998V170.834z"/>
			<path fill="#FFFFFF" d="M1096.229,135.049h14.439v12.711h-14.439V135.049z M1096.229,160.504h14.439v51.057h-14.439V160.504z"/>
			<path fill="#FFFFFF" d="M1122.394,135.049h14.44v38.342h0.213l17.245-19.104h17.024l-20.687,26.211l23.275,30.713h-18.321
				l-18.537-24.715h-0.213v24.715h-14.44V135.049z"/>
			<path fill="#FFFFFF" d="M1218.94,207.273c-5.283,2.865-11.32,4.352-19.075,4.352c-18.319,0-28.99-10.402-28.99-28.338
				c0-15.814,8.513-28.869,25.756-28.869c20.581,0,26.402,13.904,26.402,33.006h-38.362c0.641,8.813,6.894,13.799,15.841,13.799
				c7.004,0,13.035-2.545,18.429-5.518V207.273z M1209.241,177.662c-0.434-6.898-3.666-12.844-11.748-12.844
				c-8.084,0-12.182,5.52-12.822,12.844H1209.241z"/>
			<path fill="#FFFFFF" d="M1013.093,156.832c-9.561,0-16.13,8.162-16.848,13.898h-0.238v-16.313l-12.774,6.338v50.455h14.566v-7.74
				c0-8.844-1.203-26.445,9.916-31.174c0,0,3.288-2.027,10.274-1.457v-13.529C1016.315,156.832,1014.644,156.832,1013.093,156.832z"
				/>
			<polygon fill="#FFFFFF" points="1069.715,211.211 1084.157,211.211 1084.157,135.049 1069.715,141.604 			"/>
		</g>
	</g>
	<path fill="none" d="M1027.425,144.382"/>
</g>
<rect x="694.354" y="884" fill="#0B1A54" width="594" height="353.001"/>
<g>
	<g>
		<g>
			<polygon fill="#E90C70" points="95.645,211.125 106.958,196.776 127.299,196.776 127.299,170.093 141.647,151.898 
				141.647,211.125 			"/>
		</g>
		<g>
			<path fill="#E90C70" d="M65.32,134.797h74.354l-74.354,94.26V134.797z M79.69,188.264l30.838-39.098H79.69V188.264z"/>
		</g>
	</g>
	<g>
		<g>
			<path fill="#0B1A54" d="M169.084,134.797h19.072c21.588,0,31.359,7.438,31.359,25.438c0,19.896-12.82,25.996-28.986,25.996
				h-6.359v24.98h-15.086V134.797z M184.17,173.246h5.281c7.543,0,14.334-2.412,14.334-13.654c0-8.73-6.574-11.748-14.334-11.748
				h-5.281V173.246z"/>
			<path fill="#0B1A54" d="M252.945,154.418c16.486,0,29.098,10.854,29.098,28.768c0,15.594-10.67,28.025-29.098,28.025
				c-18.32,0-28.992-12.432-28.992-28.025C223.953,165.271,236.563,154.418,252.945,154.418z M252.947,199.139
				c10.391,0,13.111-9.074,13.111-17.557c0-7.793-4.234-15.088-13.111-15.088c-8.773,0-13.01,7.494-13.01,15.088
				C239.938,189.965,242.658,199.139,252.947,199.139z"/>
			<path fill="#0B1A54" d="M337.609,170.834h-6.438v-13.572h6.438v-9.502l14.443-6.156v15.658h12.82v13.572h-12.82v19.447
				c0,4.742,1.293,9.16,6.791,9.16c2.582,0,4.484-0.775,5.988-1.742v13.391c-3.018,0.863-5.346,1.414-9.656,1.414
				c-11.318,0-17.566-7.004-17.566-17.998V170.834z"/>
			<path fill="#0B1A54" d="M401.877,135.049h14.439v12.711h-14.439V135.049z M401.877,160.504h14.439v51.057h-14.439V160.504z"/>
			<path fill="#0B1A54" d="M428.041,135.049h14.439v38.342h0.215l17.244-19.104h17.025l-20.688,26.211l23.275,30.713h-18.32
				l-18.537-24.715h-0.215v24.715h-14.439V135.049z"/>
			<path fill="#0B1A54" d="M524.588,207.273c-5.283,2.865-11.32,4.352-19.074,4.352c-18.32,0-28.992-10.402-28.992-28.338
				c0-15.814,8.514-28.869,25.758-28.869c20.58,0,26.402,13.904,26.402,33.006h-38.363c0.641,8.813,6.895,13.799,15.842,13.799
				c7.004,0,13.035-2.545,18.428-5.518V207.273z M514.889,177.662c-0.434-6.898-3.666-12.844-11.748-12.844
				c-8.084,0-12.182,5.52-12.822,12.844H514.889z"/>
			<path fill="#0B1A54" d="M318.74,156.832c-9.561,0-16.129,8.162-16.848,13.898h-0.238v-16.313l-12.773,6.338v50.455h14.566v-7.74
				c0-8.844-1.203-26.445,9.916-31.174c0,0,3.287-2.027,10.273-1.457v-13.529C321.963,156.832,320.291,156.832,318.74,156.832z"/>
			<polygon fill="#0B1A54" points="375.363,211.211 389.805,211.211 389.805,135.049 375.363,141.604 			"/>
		</g>
	</g>
	<path fill="none" d="M333.072,144.382"/>
</g>
<g>
	<g>
		<polygon fill="#E90C70" points="289.162,629.478 300.475,615.129 320.816,615.129 320.816,588.445 335.164,570.251 
			335.164,629.478 		"/>
	</g>
	<g>
		<path fill="#E90C70" d="M258.838,553.149h74.354l-74.354,94.26V553.149z M273.207,606.616l30.838-39.098h-30.838V606.616z"/>
	</g>
</g>
<path fill="none" d="M329.6,593.892"/>
<path fill="none" d="M1023.953,169.612"/>
<rect x="1438.352" y="-2.996" fill="#333132" width="594" height="354.996"/>
<g>
	<g>
		<g>
			<polygon fill="#FFFFFF" points="1533.998,211.125 1545.31,196.776 1565.65,196.776 1565.65,170.093 1580,151.898 1580,211.125 
							"/>
		</g>
		<g>
			<path fill="#FFFFFF" d="M1503.673,134.797h74.354l-74.354,94.26V134.797z M1518.042,188.264l30.837-39.098h-30.837V188.264z"/>
		</g>
	</g>
	<g>
		<g>
			<path fill="#FFFFFF" d="M1607.437,134.797h19.072c21.587,0,31.358,7.438,31.358,25.438c0,19.896-12.82,25.996-28.985,25.996
				h-6.359v24.98h-15.086V134.797z M1622.522,173.246h5.281c7.543,0,14.334-2.412,14.334-13.654c0-8.73-6.574-11.748-14.334-11.748
				h-5.281V173.246z"/>
			<path fill="#FFFFFF" d="M1691.298,154.418c16.485,0,29.098,10.854,29.098,28.768c0,15.594-10.67,28.025-29.098,28.025
				c-18.32,0-28.992-12.432-28.992-28.025C1662.306,165.271,1674.916,154.418,1691.298,154.418z M1691.299,199.139
				c10.392,0,13.112-9.074,13.112-17.557c0-7.793-4.234-15.088-13.112-15.088c-8.772,0-13.008,7.494-13.008,15.088
				C1678.291,189.965,1681.011,199.139,1691.299,199.139z"/>
			<path fill="#FFFFFF" d="M1775.962,170.834h-6.438v-13.572h6.438v-9.502l14.443-6.156v15.658h12.82v13.572h-12.82v19.447
				c0,4.742,1.292,9.16,6.791,9.16c2.582,0,4.483-0.775,5.987-1.742v13.391c-3.018,0.863-5.345,1.414-9.655,1.414
				c-11.318,0-17.566-7.004-17.566-17.998V170.834z"/>
			<path fill="#FFFFFF" d="M1840.229,135.049h14.439v12.711h-14.439V135.049z M1840.229,160.504h14.439v51.057h-14.439V160.504z"/>
			<path fill="#FFFFFF" d="M1866.394,135.049h14.44v38.342h0.213l17.245-19.104h17.024l-20.687,26.211l23.275,30.713h-18.321
				l-18.537-24.715h-0.213v24.715h-14.44V135.049z"/>
			<path fill="#FFFFFF" d="M1962.94,207.273c-5.283,2.865-11.32,4.352-19.075,4.352c-18.319,0-28.99-10.402-28.99-28.338
				c0-15.814,8.513-28.869,25.756-28.869c20.581,0,26.402,13.904,26.402,33.006h-38.362c0.641,8.813,6.894,13.799,15.841,13.799
				c7.004,0,13.035-2.545,18.429-5.518V207.273z M1953.241,177.662c-0.434-6.898-3.666-12.844-11.748-12.844
				c-8.084,0-12.182,5.52-12.822,12.844H1953.241z"/>
			<path fill="#FFFFFF" d="M1757.093,156.832c-9.561,0-16.13,8.162-16.848,13.898h-0.238v-16.313l-12.774,6.338v50.455h14.566v-7.74
				c0-8.844-1.203-26.445,9.916-31.174c0,0,3.287-2.027,10.274-1.457v-13.529C1760.315,156.832,1758.644,156.832,1757.093,156.832z"
				/>
			<polygon fill="#FFFFFF" points="1813.715,211.211 1828.157,211.211 1828.157,135.049 1813.715,141.604 			"/>
		</g>
	</g>
	<path fill="none" d="M1771.425,144.382"/>
</g>
<path fill="none" d="M1767.953,169.612"/>
<g>
	<g>
		<g>
			<polygon fill="#E90C70" points="986.486,1043.159 993.514,1034.247 1006.146,1034.247 1006.146,1017.675 1015.055,1006.376 
				1015.055,1043.159 			"/>
		</g>
		<g>
			<path fill="#E90C70" d="M967.654,995.757h46.176l-46.176,58.539V995.757z M976.58,1028.962l19.148-24.281H976.58V1028.962z"/>
		</g>
	</g>
	<g>
		<g>
			<path fill="#FFFFFF" d="M879.691,1078.664h11.842c13.412,0,19.479,4.621,19.479,15.799c0,12.355-7.965,16.145-18.002,16.145
				h-3.951v15.512h-9.367V1078.664z M889.059,1102.543h3.281c4.688,0,8.904-1.496,8.904-8.482c0-5.418-4.086-7.291-8.904-7.291
				h-3.281V1102.543z"/>
			<path fill="#FFFFFF" d="M931.771,1090.852c10.238,0,18.072,6.74,18.072,17.865c0,9.684-6.625,17.402-18.072,17.402
				c-11.377,0-18.002-7.719-18.002-17.402C913.77,1097.592,921.598,1090.852,931.771,1090.852z M931.775,1118.623
				c6.451,0,8.139-5.635,8.139-10.904c0-4.836-2.629-9.371-8.139-9.371c-5.447,0-8.08,4.656-8.08,9.371
				C923.695,1112.926,925.385,1118.623,931.775,1118.623z"/>
			<path fill="#FFFFFF" d="M984.352,1101.047h-3.994v-8.432h3.994v-5.902l8.971-3.82v9.723h7.963v8.432h-7.963v12.078
				c0,2.941,0.801,5.688,4.217,5.688c1.605,0,2.785-0.482,3.721-1.082v8.314c-1.875,0.537-3.322,0.879-5.998,0.879
				c-7.031,0-10.91-4.35-10.91-11.174V1101.047z"/>
			<path fill="#FFFFFF" d="M1024.264,1078.822h8.969v7.891h-8.969V1078.822z M1024.264,1094.627h8.969v31.711h-8.969V1094.627z"/>
			<path fill="#FFFFFF" d="M1040.514,1078.822h8.969v23.811h0.135l10.707-11.863h10.572l-12.848,16.279l14.457,19.07h-11.379
				l-11.51-15.346h-0.135v15.346h-8.969V1078.822z"/>
			<path fill="#FFFFFF" d="M1100.473,1123.678c-3.277,1.775-7.029,2.701-11.844,2.701c-11.379,0-18.006-6.461-18.006-17.598
				c0-9.824,5.287-17.93,15.994-17.93c12.783,0,16.398,8.635,16.398,20.498h-23.826c0.398,5.471,4.285,8.568,9.84,8.568
				c4.352,0,8.096-1.582,11.443-3.428V1123.678z M1094.453,1105.285c-0.271-4.281-2.279-7.977-7.299-7.977
				c-5.018,0-7.566,3.43-7.965,7.977H1094.453z"/>
			<path fill="#FFFFFF" d="M972.635,1092.348c-5.939,0-10.018,5.072-10.465,8.635h-0.148v-10.131l-7.932,3.936v31.332h9.047v-4.805
				c0-5.494-0.748-16.426,6.158-19.361c0,0,2.041-1.258,6.379-0.906v-8.4C974.635,1092.348,973.598,1092.348,972.635,1092.348z"/>
			<polygon fill="#FFFFFF" points="1007.797,1126.119 1016.77,1126.119 1016.77,1078.822 1007.797,1082.893 			"/>
		</g>
	</g>
	<path fill="none" d="M991.354,1084.619"/>
</g>
<rect x="1438.354" y="884" fill="#333132" width="594" height="353.001"/>
<g>
	<g>
		<g>
			<polygon fill="#FFFFFF" points="1730.486,1043.159 1737.514,1034.247 1750.146,1034.247 1750.146,1017.675 1759.055,1006.376 
				1759.055,1043.159 			"/>
		</g>
		<g>
			<path fill="#FFFFFF" d="M1711.654,995.757h46.176l-46.176,58.539V995.757z M1720.58,1028.962l19.148-24.281h-19.148V1028.962z"/>
		</g>
	</g>
	<g>
		<g>
			<path fill="#FFFFFF" d="M1623.691,1078.664h11.842c13.412,0,19.479,4.621,19.479,15.799c0,12.355-7.965,16.145-18.002,16.145
				h-3.951v15.512h-9.367V1078.664z M1633.059,1102.543h3.281c4.688,0,8.904-1.496,8.904-8.482c0-5.418-4.086-7.291-8.904-7.291
				h-3.281V1102.543z"/>
			<path fill="#FFFFFF" d="M1675.771,1090.852c10.238,0,18.072,6.74,18.072,17.865c0,9.684-6.625,17.402-18.072,17.402
				c-11.377,0-18.002-7.719-18.002-17.402C1657.77,1097.592,1665.598,1090.852,1675.771,1090.852z M1675.775,1118.623
				c6.451,0,8.139-5.635,8.139-10.904c0-4.836-2.629-9.371-8.139-9.371c-5.447,0-8.08,4.656-8.08,9.371
				C1667.695,1112.926,1669.385,1118.623,1675.775,1118.623z"/>
			<path fill="#FFFFFF" d="M1728.352,1101.047h-3.994v-8.432h3.994v-5.902l8.971-3.82v9.723h7.963v8.432h-7.963v12.078
				c0,2.941,0.801,5.688,4.217,5.688c1.605,0,2.785-0.482,3.721-1.082v8.314c-1.875,0.537-3.322,0.879-5.998,0.879
				c-7.031,0-10.91-4.35-10.91-11.174V1101.047z"/>
			<path fill="#FFFFFF" d="M1768.264,1078.822h8.969v7.891h-8.969V1078.822z M1768.264,1094.627h8.969v31.711h-8.969V1094.627z"/>
			<path fill="#FFFFFF" d="M1784.514,1078.822h8.969v23.811h0.135l10.707-11.863h10.572l-12.848,16.279l14.457,19.07h-11.379
				l-11.51-15.346h-0.135v15.346h-8.969V1078.822z"/>
			<path fill="#FFFFFF" d="M1844.473,1123.678c-3.277,1.775-7.029,2.701-11.844,2.701c-11.379,0-18.006-6.461-18.006-17.598
				c0-9.824,5.287-17.93,15.994-17.93c12.783,0,16.398,8.635,16.398,20.498h-23.826c0.398,5.471,4.285,8.568,9.84,8.568
				c4.352,0,8.096-1.582,11.443-3.428V1123.678z M1838.453,1105.285c-0.271-4.281-2.279-7.977-7.299-7.977
				c-5.018,0-7.566,3.43-7.965,7.977H1838.453z"/>
			<path fill="#FFFFFF" d="M1716.635,1092.348c-5.939,0-10.018,5.072-10.465,8.635h-0.148v-10.131l-7.932,3.936v31.332h9.047v-4.805
				c0-5.494-0.748-16.426,6.158-19.361c0,0,2.041-1.258,6.379-0.906v-8.4C1718.635,1092.348,1717.598,1092.348,1716.635,1092.348z"
				/>
			<polygon fill="#FFFFFF" points="1751.797,1126.119 1760.77,1126.119 1760.77,1078.822 1751.797,1082.893 			"/>
		</g>
	</g>
	<path fill="#FFFFFF" d="M1735.354,1084.619"/>
</g>
<g>
	<g>
		<g>
			<polygon fill="#E90C70" points="292.133,1043.159 299.161,1034.247 311.794,1034.247 311.794,1017.675 320.702,1006.376 
				320.702,1043.159 			"/>
		</g>
		<g>
			<path fill="#E90C70" d="M273.302,995.757h46.176l-46.176,58.539V995.757z M282.228,1028.962l19.148-24.281h-19.148V1028.962z"/>
		</g>
	</g>
	<g>
		<g>
			<path fill="#0B1A54" d="M185.339,1078.664h11.841c13.413,0,19.479,4.621,19.479,15.799c0,12.355-7.965,16.145-18.002,16.145
				h-3.951v15.512h-9.367V1078.664z M194.706,1102.543h3.281c4.688,0,8.904-1.496,8.904-8.482c0-5.418-4.086-7.291-8.904-7.291
				h-3.281V1102.543z"/>
			<path fill="#0B1A54" d="M237.419,1090.852c10.238,0,18.072,6.74,18.072,17.865c0,9.684-6.626,17.402-18.072,17.402
				c-11.377,0-18.003-7.719-18.003-17.402C219.416,1097.592,227.245,1090.852,237.419,1090.852z M237.423,1118.623
				c6.452,0,8.139-5.635,8.139-10.904c0-4.836-2.63-9.371-8.139-9.371c-5.447,0-8.08,4.656-8.08,9.371
				C229.343,1112.926,231.032,1118.623,237.423,1118.623z"/>
			<path fill="#0B1A54" d="M290,1101.047h-3.995v-8.432H290v-5.902l8.97-3.82v9.723h7.962v8.432h-7.962v12.078
				c0,2.941,0.801,5.688,4.217,5.688c1.605,0,2.785-0.482,3.721-1.082v8.314c-1.875,0.537-3.322,0.879-5.998,0.879
				c-7.031,0-10.909-4.35-10.909-11.174V1101.047z"/>
			<path fill="#0B1A54" d="M329.911,1078.822h8.968v7.891h-8.968V1078.822z M329.911,1094.627h8.968v31.711h-8.968V1094.627z"/>
			<path fill="#0B1A54" d="M346.161,1078.822h8.969v23.811h0.134l10.708-11.863h10.572l-12.848,16.279l14.457,19.07h-11.379
				l-11.511-15.346h-0.134v15.346h-8.969V1078.822z"/>
			<path fill="#0B1A54" d="M406.12,1123.678c-3.277,1.775-7.029,2.701-11.844,2.701c-11.38,0-18.006-6.461-18.006-17.598
				c0-9.824,5.287-17.93,15.993-17.93c12.783,0,16.399,8.635,16.399,20.498h-23.826c0.398,5.471,4.285,8.568,9.84,8.568
				c4.352,0,8.096-1.582,11.443-3.428V1123.678z M400.1,1105.285c-0.271-4.281-2.278-7.977-7.298-7.977
				c-5.019,0-7.566,3.43-7.965,7.977H400.1z"/>
			<path fill="#0B1A54" d="M278.281,1092.348c-5.938,0-10.018,5.072-10.465,8.635h-0.147v-10.131l-7.932,3.936v31.332h9.046v-4.805
				c0-5.494-0.747-16.426,6.159-19.361c0,0,2.041-1.258,6.379-0.906v-8.4C280.281,1092.348,279.245,1092.348,278.281,1092.348z"/>
			<polygon fill="#0B1A54" points="313.444,1126.119 322.416,1126.119 322.416,1078.822 313.444,1082.893 			"/>
		</g>
	</g>
	<path fill="none" d="M297,1084.619"/>
</g>
<rect x="694.354" y="409.952" fill="#0B1A54" width="594" height="352"/>
<g>
	<g>
		<polygon fill="#E90C70" points="983.514,615.15 994.826,600.802 1015.168,600.802 1015.168,574.118 1029.516,555.924 
			1029.516,615.15 		"/>
	</g>
	<g>
		<path fill="#E90C70" d="M953.189,538.822h74.354l-74.354,94.26V538.822z M967.559,592.289l30.838-39.098h-30.838V592.289z"/>
	</g>
</g>
<rect x="1438.354" y="409.952" fill="#333132" width="594" height="352"/>
<g>
	<g>
		<polygon fill="#FFFFFF" points="1727.514,615.15 1738.826,600.802 1759.168,600.802 1759.168,574.118 1773.516,555.924 
			1773.516,615.15 		"/>
	</g>
	<g>
		<path fill="#FFFFFF" d="M1697.189,538.822h74.354l-74.354,94.26V538.822z M1711.559,592.289l30.838-39.098h-30.838V592.289z"/>
	</g>
</g>
</svg>
